<?xml version="1.0" encoding="UTF-8"?> <svg xmlns="http://www.w3.org/2000/svg" id="_Слой_2" data-name="Слой 2" viewBox="0 0 76 67.5"><defs><style> .cls-1 { fill: #1a1a1a; } .cls-1, .cls-2 { stroke-width: 0px; } .cls-2 { fill: #fff; } </style></defs><g id="_Слой_1-2" data-name="Слой 1"><path class="cls-1" d="M2.99,50.5c-2.26,0-3.73,2.47-2.61,4.45,4.22,7.48,12.09,12.55,21.07,12.55h33.09c8.98,0,16.85-5.06,21.07-12.55,1.12-1.99-.35-4.45-2.61-4.45H2.99Z"></path><rect class="cls-1" y="31.5" width="76" height="12" rx="6" ry="6"></rect><path class="cls-1" d="M75.65,20.08c-4.26-8.22-11.71-14.52-20.66-17.18-5.23-1.85-10.96-2.9-16.99-2.9s-11.75,1.04-16.99,2.9C12.06,5.56,4.61,11.85.35,20.08c-1.04,2.01.37,4.42,2.61,4.42h70.08c2.24,0,3.65-2.41,2.61-4.42Z"></path><ellipse class="cls-2" cx="15.95" cy="10.55" rx="1.5" ry=".59" transform="translate(-1.16 19.08) rotate(-60)"></ellipse><ellipse class="cls-2" cx="28.94" cy="13.38" rx="1.5" ry=".68" transform="translate(2.88 31.75) rotate(-60)"></ellipse><ellipse class="cls-2" cx="25.94" cy="6.38" rx="1.5" ry=".68" transform="translate(7.44 25.65) rotate(-60)"></ellipse><ellipse class="cls-2" cx="47.82" cy="13.25" rx=".6" ry="1.5" transform="translate(-.22 25.69) rotate(-30)"></ellipse><ellipse class="cls-2" cx="50.82" cy="6.25" rx=".6" ry="1.5" transform="translate(3.69 26.25) rotate(-30)"></ellipse><ellipse class="cls-2" cx="61.66" cy="9.34" rx=".59" ry="1.5" transform="translate(3.59 32.08) rotate(-30)"></ellipse><path class="cls-2" d="M38.56,7.28c0,.83-.3,1.5-.68,1.5s-.68-.67-.68-1.5.3-1.5.68-1.5.68.67.68,1.5Z"></path></g></svg> 