<?xml version="1.0" encoding="UTF-8"?> <svg xmlns="http://www.w3.org/2000/svg" width="265" height="261" fill="none"><g clip-path="url(#phone svg__a)"><path d="M40.54 85.188c-2.624-5.12-5.155-10.107-7.749-15.06-.474-.906-.354-1.357.569-1.767 1.158-.515 2.265-1.139 3.548-1.797-9.117-17.698-18.2-35.336-27.332-53.065-2.45.678-4.778.553-6.867-1.05C1.372 11.422.556 10.076.173 8.451-.572 5.273 1.112 1.955 4.16.594c3.043-1.358 6.655-.321 8.571 2.46 2.105 3.052 1.444 6.477-1.93 9.856l27.311 53.023c1.25-.645 2.436-1.209 3.571-1.858.91-.523 1.424-.324 1.893.609 2.321 4.62 4.691 9.215 7.048 13.817.189.37.423.719.678 1.147 3.332-1.692 6.617-3.343 9.885-5.025 9.8-5.041 19.59-10.105 29.396-15.135 1.502-.77 3.005-1.634 4.612-2.085 3.084-.867 6.079.533 7.591 3.428 3.704 7.097 7.347 14.227 11.017 21.343.638 1.235 1.291 2.461 2.036 3.88.707-1.12 1.342-2.089 1.939-3.078 10.229-16.947 20.44-33.906 30.691-50.84 1.289-2.13 2.531-4.366 4.209-6.168 3.694-3.97 8.592-5.621 13.859-6.271 3.62-.446 7.209-.158 10.737.76.681.175 1.038-.019 1.505-.513 3.497-3.72 7.514-6.61 12.667-7.566a14.942 14.942 0 0 1 6.941.323c3.538 1.022 4.857 2.98 4.49 6.66 2.443.369 4.604 1.307 6.247 3.261 3.589 4.266 3.27 9.6-.776 13.446-.388.37-.638 1.052-.666 1.603-.125 2.413-.084 4.834-.217 7.247-.132 2.406-.4 4.804-.612 7.245 5.49 2.228 7.875 5.632 7.173 10.362-.678 4.585-4.153 7.273-10.019 7.717-2.76 7.834-8.237 13.032-15.953 16.256 1.857.438 3.734.803 5.568 1.325 7.334 2.095 14.637 4.305 21.988 6.34 3.873 1.074 7.778 2.297 11.744 2.707 6.61.68 7.015-1.284 6.944-6.294-.079-5.497-.781-10.99-1.276-16.476-.515-5.7-1.163-11.389-1.627-17.092-.11-1.363.115-2.808.474-4.139.511-1.88 2.587-2.362 3.885-.892.758.86 1.245 1.996 1.709 3.069.651 1.513 1.077 3.127 1.763 4.623.872 1.903 1.893 2.403 3.783 1.51 2.747-1.296 5.352-2.897 8.025-4.357 1.375-.752 2.737-1.532 4.153-2.194.859-.403 2.007-.668 2.515.308.296.571.059 1.705-.355 2.294-.992 1.412-2.229 2.65-3.364 3.96-.128.148-.237.313-.232.754.436-.135.864-.298 1.308-.397 2.105-.474 4.201-1.01 6.326-1.356 1.044-.17 2.194 0 2.671 1.213.462 1.17-.286 2.006-1.092 2.615-1.553 1.172-3.206 2.21-4.818 3.302-.164.112-.34.207-.459.508 1.056-.092 2.112-.245 3.168-.255.88-.01 1.798.023 2.637.26 1.592.45 2.036 1.924.801 3-1.196 1.039-2.584 1.954-4.035 2.586-3.252 1.414-6.594 2.62-9.834 3.883.664 4.6 1.434 9.241 1.98 13.907.681 5.823.992 11.664.153 17.515-.987 6.878-4.097 10.813-11.966 12.396-4.997 1.004-9.979.446-14.943-.388-3.972-.665-7.931-1.424-11.92-1.949-2.967-.393-4.071.545-4.477 3.489-.242 1.761-.337 3.547-.416 5.326-.038.871-.354 1.261-1.229 1.44-16.127 3.292-32.248 6.613-48.369 9.926-11.219 2.306-22.44 4.612-33.659 6.921-.288.059-.569.161-1 .286 1.181 2.298 2.337 4.546 3.495 6.794 4.324 8.399 8.78 16.738 12.902 25.234 1.574 3.244 3.911 4.564 7.252 5.104 5.444.88 10.844 2.011 16.259 3.061 2.117.41 3.76 1.544 4.763 3.479 4.035 7.787 8.053 15.583 12.078 23.376.934 1.807 1.872 3.611 2.806 5.418 1.995 3.868.786 7.765-3.115 9.786-7.262 3.764-14.55 7.482-21.825 11.226-10.216 5.254-20.427 10.512-30.643 15.767-3.127 1.608-6.247 3.236-9.39 4.814-3.426 1.717-7.385.496-9.162-2.924-5.569-10.71-11.084-21.449-16.612-32.181-6.46-12.54-12.912-25.084-19.368-37.627-5.895-11.45-11.788-22.902-17.685-34.352-8.923-17.325-17.849-34.646-26.774-51.97-.37-.716-.77-1.417-1.115-2.143-1.647-3.487-.382-7.34 3.026-9.136 2.992-1.578 6.007-3.117 9.078-4.707l-.008-.003Zm223.126-15.45c-.056-.215-.115-.429-.171-.645-1.026-.054-2.082-.291-3.071-.125-2.924.484-5.819 1.136-8.732 1.694-.559.107-1.329.68-1.597-.255-.071-.254.623-.856 1.072-1.105 3.221-1.79 6.494-3.492 9.695-5.314.794-.451 1.388-1.249 2.074-1.888l-.196-.49c-.85 0-1.758-.198-2.536.034-3.405 1.014-6.77 2.166-10.162 3.226-.406.127-.896-.005-1.345-.018.189-.408.284-.91.582-1.205 1.987-1.97 4.038-3.877 6.017-5.852.523-.522.875-1.218 1.304-1.834l-.268-.255c-.502.186-1.036.31-1.5.568-1.482.818-2.918 1.718-4.41 2.52-2.383 1.282-4.719 2.697-7.217 3.713-2.482 1.012-4.027.27-5.178-2.166-.737-1.564-1.204-3.257-1.854-4.865-.347-.856-.722-1.735-1.268-2.469-.607-.82-1.561-.606-1.798.385-.243 1.022-.477 2.107-.391 3.137.488 5.703 1.113 11.394 1.615 17.095.508 5.784.992 11.574 1.334 17.37.084 1.44-.217 2.994-.74 4.342-.354.915-1.28 1.791-2.17 2.276-1.804.98-3.867 1.05-5.849.68-3.041-.566-6.11-1.116-9.051-2.036-10.489-3.28-21.006-6.44-31.73-8.889-.625-.143-1.178-.596-1.765-.905.566-.344 1.094-.82 1.709-1.016 8.117-2.592 13.869-7.663 16.667-15.823.299-.872.778-.905 1.538-.836 4.059.367 7.569-2.268 8.375-6.226.76-3.744-1.523-7.52-5.303-8.772-2.158-.713-2.003-.7-1.819-3.025.354-4.475.543-8.965.732-13.45.038-.91.242-1.516.974-2.154 2.582-2.24 3.689-5.027 2.618-8.435-1.108-3.511-3.76-5.726-7.296-5.963-1.173-.079-1.459-.385-1.127-1.555.64-2.257-.304-4.008-2.493-4.885-2.313-.927-4.724-1.03-7.139-.604-5.092.897-9 3.802-12.357 7.544-.62.69-1.12.902-2.058.644-4.842-1.333-9.724-1.432-14.594-.125-7.032 1.889-11.754 6.185-13.687 13.31-1.485 5.477-1.375 11.002-.314 16.517.255 1.32.081 1.916-1.301 2.388-3.65 1.246-5.63 5.104-4.778 8.914.799 3.573 4.367 6.302 8.007 5.867 1.339-.161 1.676.338 2.026 1.386 1.438 4.31 3.808 8.022 7.295 10.98 2.495 2.119 5.354 3.553 8.471 4.522.357.112.61.553.911.84-.321.228-.64.46-.969.679-.067.043-.164.035-.248.053-11.907 2.696-21.144 9.162-27.414 19.653-4.624 7.737-6.596 16.315-7.293 25.189-.278 3.527-.045 7.095-.045 10.8 24.73-5.089 49.318-10.148 73.951-15.214.082-1.144.128-2.199.24-3.247.117-1.095.227-2.199.469-3.269.623-2.745 2.056-3.833 4.893-3.81.423.002.852.018 1.27.087 4.645.769 9.28 1.602 13.935 2.311 4.518.688 9.058.907 13.535-.265 4.696-1.228 8.219-3.841 9.012-8.912.536-3.417.868-6.903.857-10.359-.022-7.571-1.16-15.043-2.668-22.449-.247-1.213.113-1.6 1.184-1.995a310.247 310.247 0 0 0 11.114-4.366c.888-.367 1.625-1.096 2.433-1.659l-.007.005ZM29.039 96.257c.148.5.28 1.354.642 2.093 1.44 2.928 2.944 5.825 4.436 8.725 5.434 10.551 10.875 21.099 16.306 31.649 5.257 10.212 10.496 20.428 15.759 30.637 5.94 11.529 11.904 23.045 17.848 34.574 4.755 9.225 9.49 18.463 14.241 27.689 4.214 8.178 8.456 16.337 12.655 24.52 1.701 3.318 4.65 4.376 7.949 2.692a4715.811 4715.811 0 0 0 24.102-12.388c.962-.5 1.962-1.099 2.653-1.904 1.595-1.853 1.717-3.965.585-6.154-4.804-9.302-9.643-18.588-14.357-27.936-1.158-2.299-2.762-3.573-5.288-4.024-5.762-1.024-11.491-2.222-17.246-3.287-2.561-.474-4.403-1.759-5.596-4.106-3.383-6.646-6.832-13.259-10.245-19.89-7.076-13.754-14.134-27.518-21.23-41.261-1.166-2.258-1.135-4.447-.09-6.71 2.541-5.497 5.036-11.012 7.587-16.504.913-1.962.813-3.799-.181-5.718a7167.376 7167.376 0 0 1-14.512-28.14c-1.681-3.27-4.742-4.273-7.997-2.564-3.6 1.891-7.173 3.83-10.788 5.686-4.788 2.46-9.619 4.832-14.404 7.294-1.86.958-2.676 2.63-2.834 5.025l.005.002Zm32.184-20.13c2.227.6 3.844 1.716 4.813 3.594C71.038 89.403 76.013 99.1 81 108.789c1.064 2.069 1.046 4.156.087 6.249-2.543 5.55-5.063 11.111-7.665 16.636-.952 2.018-.89 3.911.133 5.843a631.568 631.568 0 0 1 3.231 6.208c5.52 10.701 11.043 21.399 16.558 32.102 3.826 7.429 7.665 14.852 11.441 22.304 1.04 2.054 2.553 3.275 4.831 3.693 5.926 1.088 11.833 2.258 17.754 3.374 2.362.446 4.137 1.641 5.247 3.804 4.538 8.823 9.061 17.653 13.644 26.455 1.388 2.664 2.868 5.253 1.332 8.632 1.038-.54 1.747-.912 2.459-1.277 10.073-5.183 20.147-10.362 30.217-15.55 3.411-1.759 4.319-4.778 2.546-8.214-4.847-9.383-9.675-18.774-14.507-28.162-.913-1.776-2.326-2.865-4.303-3.237-5.88-1.111-11.752-2.268-17.639-3.351-2.581-.474-4.584-1.654-5.808-4.052-3.457-6.761-6.936-13.509-10.41-20.26-2.324-4.518-4.653-9.031-6.997-13.585-2.482.504-4.888.986-7.288 1.483-8.308 1.725-16.619 3.451-24.924 5.189-1.801.377-3.454-.339-4.375-2.052a220.095 220.095 0 0 1-3.566-6.893c-.612-1.241-.645-2.551.092-3.782 1.767-2.946 3.555-5.879 5.334-8.818 1.24-2.046 2.476-4.095 3.713-6.144-.543 0-.918.156-1.277.339-4.717 2.421-9.426 4.86-14.16 7.243-.378.191-.947.007-1.424 0 .281-.388.472-.941.852-1.139 5.526-2.893 11.084-5.722 16.609-8.614.6-.313 1.186-.838 1.54-1.414 3.373-5.495 6.699-11.02 10.031-16.542 1.14-1.891 2.262-3.795 3.573-5.991-.54.237-.732.308-.91.4-5.775 2.964-11.548 5.932-17.32 8.899-1.171.601-2.324 1.241-3.523 1.773-.291.13-.735-.091-1.11-.15.153-.341.258-.719.475-1.012.135-.183.438-.239.665-.356 6.263-3.219 12.528-6.433 18.79-9.654 2.347-1.208 4.831-2.138 6.053-4.88.908-2.039 2.232-3.899 3.441-5.793.469-.733.469-1.31.072-2.076a4742.433 4742.433 0 0 1-12.53-24.31c-1.801-3.522-4.847-4.487-8.392-2.658-8.482 4.379-16.981 8.721-25.47 13.086-2.253 1.157-4.493 2.342-6.896 3.596l-.002-.002ZM96.86 150.16c.436.097.632.201.798.168 4.14-.869 8.275-1.766 12.418-2.627a5759.04 5759.04 0 0 1 20.947-4.315c.704-.143 1.112-.313 1.041-1.213-.658-8.297.355-16.422 2.625-24.414 3.071-10.815 9.045-19.538 18.501-25.77 3.88-2.555 8.102-4.365 12.91-5.7-3.78-1.544-6.831-3.621-9.351-6.437-2.528-2.824-4.26-6.101-5.475-9.63-5.486-.278-8.736-2.557-9.854-6.863-.497-1.914-.344-3.782.398-5.61 1.069-2.63 3.036-4.319 5.273-5.145-.145-5.104-.286-9.974-.426-14.872-20.068 33.234-40.191 66.554-60.312 99.877.441.089.668.01.88-.099 5.851-3 11.695-6.012 17.555-8.994 2.114-1.075 4.326-.344 5.402 1.731 1.133 2.184 2.26 4.37 3.373 6.562 1.188 2.342.546 4.439-1.801 5.665-4.885 2.548-9.796 5.053-14.897 7.683l-.005.003Zm15.922-11.437c-.046-.171-.082-.566-.25-.897-1.224-2.416-2.436-4.84-3.737-7.215-.653-1.193-1.946-1.557-3.194-.971-1.609.757-3.178 1.603-4.762 2.413-5.015 2.572-10.03 5.148-15.047 7.717-1.707.874-2.345 2.1-1.633 3.583a150.505 150.505 0 0 0 3.668 7.123c.725 1.328 1.995 1.669 3.383 1.032.885-.408 1.74-.882 2.606-1.328 5.694-2.923 11.388-5.848 17.086-8.764 1.041-.532 1.844-1.21 1.883-2.699l-.003.006ZM41.836 84.699l8.275-4.284-7.795-15.104-8.27 4.281c2.633 5.104 5.186 10.058 7.79 15.11v-.003ZM12.53 6.906c-.01-3.116-2.493-5.59-5.574-5.555-3.079.035-5.602 2.54-5.62 5.578-.017 3.091 2.58 5.647 5.702 5.617 3.084-.03 5.5-2.513 5.492-5.64ZM253.478 61.96l.089-.089c-.056-.028-.11-.066-.168-.079-.021-.005-.054.051-.082.08l.161.088ZM147.066 37.311c-.028.028-.076.054-.079.084 0 .031.041.064.064.097.028-.028.077-.056.079-.084 0-.03-.041-.064-.064-.094v-.003Z" fill="#0E0C09"></path><path d="M142.978 151.444c-.113-.359-.373-.757-.294-1.065.077-.303.47-.691.778-.747a604.474 604.474 0 0 1 10.04-1.722c14.147-2.337 28.292-4.667 42.439-7.001.125-.02.268-.081.375-.043.382.13.755.295 1.132.446-.285.29-.53.772-.862.841-1.701.357-3.426.609-5.145.894l-43.451 7.156c-1.508.247-3.013.507-4.518.76l-.497.481h.003Z" fill="#100F0F"></path><path d="M117.387 69.966c-.023-.425-.196-.917-.043-1.269 1.194-2.754 2.449-5.484 3.691-8.218 2.781-6.124 5.564-12.245 8.347-18.367.14-.308.229-.677.456-.897.227-.219.602-.288.911-.42.099.326.365.713.27.966-.403 1.065-.91 2.092-1.382 3.132-3.602 7.93-7.201 15.864-10.813 23.79-.225.493-.572.934-.863 1.398-.191-.038-.38-.076-.571-.117l-.003.002Z" fill="#100F0E"></path><path d="M181.949 153.198c.34-.026.697-.133 1.011-.059.398.094.762.334 1.142.512-.344.275-.665.754-1.038.795-2.188.24-4.39.385-6.586.553-6.423.492-12.849.979-19.274 1.466-.465.035-.952.155-1.39.063-.442-.091-.837-.402-1.253-.616.38-.232.745-.622 1.148-.671 1.64-.196 3.293-.293 4.941-.42 7.099-.546 14.2-1.086 21.302-1.629v.008l-.003-.002Z" fill="#0F0E0D"></path><path d="M263.666 69.737c-.806.563-1.546 1.29-2.434 1.66a309.508 309.508 0 0 1-11.114 4.364c-1.069.395-1.431.78-1.183 1.996 1.507 7.405 2.647 14.877 2.668 22.449.01 3.455-.324 6.942-.857 10.359-.794 5.071-4.316 7.683-9.012 8.912-4.477 1.17-9.018.95-13.535.265-4.655-.709-9.29-1.542-13.935-2.312a8.545 8.545 0 0 0-1.271-.086c-2.834-.023-4.27 1.065-4.892 3.81-.243 1.07-.352 2.176-.47 3.269-.112 1.048-.158 2.105-.239 3.247-24.631 5.069-49.219 10.127-73.952 15.214 0-3.705-.232-7.273.046-10.8.699-8.874 2.671-17.452 7.293-25.189 6.27-10.494 15.506-16.96 27.414-19.653.081-.018.181-.01.247-.053.327-.22.648-.452.969-.678-.301-.288-.553-.73-.91-.841-3.117-.971-5.974-2.404-8.472-4.521-3.487-2.959-5.854-6.672-7.295-10.981-.349-1.05-.686-1.547-2.025-1.387-3.643.436-7.209-2.293-8.008-5.866-.851-3.807 1.128-7.666 4.778-8.914 1.385-.472 1.556-1.068 1.301-2.388-1.061-5.515-1.173-11.042.314-16.516 1.933-7.126 6.655-11.42 13.688-13.31 4.869-1.308 9.752-1.211 14.593.124.939.26 1.441.046 2.059-.645 3.357-3.74 7.265-6.646 12.356-7.543 2.416-.426 4.826-.324 7.14.604 2.188.877 3.135 2.625 2.492 4.885-.332 1.17-.046 1.476 1.128 1.555 3.535.237 6.19 2.451 7.295 5.963 1.074 3.407-.036 6.195-2.617 8.435-.732.638-.936 1.244-.975 2.154-.188 4.485-.377 8.975-.732 13.45-.183 2.322-.339 2.312 1.819 3.025 3.778 1.252 6.063 5.028 5.303 8.772-.803 3.96-4.316 6.593-8.374 6.226-.763-.07-1.24-.039-1.538.835-2.799 8.16-8.551 13.232-16.668 15.824-.614.196-1.14.67-1.709 1.016.587.309 1.141.762 1.765.905 10.722 2.447 21.241 5.609 31.731 8.889 2.943.92 6.012 1.47 9.05 2.036 1.979.37 4.046.303 5.849-.68.893-.487 1.816-1.364 2.171-2.276.523-1.348.824-2.905.74-4.343-.34-5.797-.827-11.585-1.335-17.37-.5-5.7-1.127-11.39-1.614-17.094-.087-1.03.145-2.115.39-3.137.237-.992 1.189-1.206 1.798-.385.546.734.921 1.613 1.268 2.47.651 1.61 1.117 3.3 1.855 4.864 1.147 2.436 2.693 3.178 5.178 2.166 2.495-1.017 4.831-2.43 7.216-3.713 1.49-.803 2.926-1.702 4.411-2.52.464-.255.997-.382 1.5-.568l.267.255c-.431.616-.78 1.312-1.303 1.834-1.98 1.975-4.033 3.882-6.018 5.852-.298.295-.392.797-.581 1.205.451.013.939.145 1.344.018 3.393-1.06 6.757-2.212 10.163-3.227.78-.232 1.688-.033 2.535-.033.067.163.13.326.197.49-.687.64-1.281 1.437-2.074 1.888-3.202 1.825-6.474 3.524-9.696 5.313-.449.25-1.143.852-1.071 1.106.265.936 1.035.362 1.597.255 2.913-.558 5.808-1.21 8.731-1.695.99-.163 2.046.072 3.071.125.056.215.115.428.171.645l.008-.005Zm-90.974 2.872c1.475-.061 2.99-.374 4.232-1.486 1.671-1.496 1.265-3.914-.803-4.755-.391-.158-.801-.308-1.217-.367-1.883-.262-3.081-1.297-3.987-2.969-1.212-2.235-3.987-2.202-5.367-.048-.758 1.182-.829 2.477-.485 3.8.86 3.307 4.077 5.797 7.627 5.828v-.003Zm13.267-16.562c0 .03.005.064.005.094.84-.094 1.694-.12 2.516-.295 1.727-.375 2.612-1.555 2.561-3.272-.064-2.139-1.454-3.976-3.513-4.646-2.033-.663-4.298.018-5.545 1.75-.993 1.377-1.393 2.916-.682 4.54.664 1.51 2.113 1.671 3.521 1.821.375.041.76.005 1.14.005l-.003.003Zm-16.919.018c0 .023.005.046.005.069.801-.08 1.607-.12 2.4-.248 1.959-.318 2.956-1.613 2.803-3.578-.275-3.529-4.048-5.682-7.231-4.128-1.98.966-3.181 3.349-2.722 5.4.362 1.616 1.653 2.373 4.237 2.485.168.008.339 0 .508 0Zm12.052 5.326c-1.627 0-2.897-.053-4.16.03-.401.026-.781.413-1.168.633.375.231.742.642 1.13.667 1.352.082 2.711.074 4.066.013.716-.033 1.426-.25 2.14-.382-.319-.614-.564-1.282-.967-1.83a146.184 146.184 0 0 0-4.104-5.324c-.255-.313-.799-.392-1.207-.578.051.471.041.963.176 1.41.092.302.388.547.595.815 1.099 1.43 2.198 2.856 3.502 4.549l-.003-.003Zm-12.907-19.444c-2.227.255-4.268 1.626-4.803 3.486-.087.303.168.703.265 1.057.316-.178.77-.277.929-.55 1.474-2.513 3.313-3.005 5.826-1.552.278.16.722.038 1.089.046-.117-.392-.117-.994-.378-1.142-.928-.532-1.943-.91-2.928-1.345Zm19.578-.11c-1 .398-2.038.726-2.98 1.231-.293.158-.334.79-.489 1.205.403-.03.887.074 1.199-.112 2.316-1.389 4.4-.828 5.775 1.555.173.303.648.433.984.642.069-.408.304-.877.181-1.218-.635-1.79-2.548-3.028-4.668-3.303h-.002Z" fill="#FDD200"></path><path d="M29.039 96.258c.158-2.395.974-4.07 2.834-5.025 4.785-2.465 9.616-4.837 14.405-7.294 3.617-1.855 7.19-3.794 10.787-5.685 3.255-1.71 6.316-.706 7.997 2.563 4.824 9.386 9.647 18.772 14.512 28.14.995 1.916 1.094 3.754.18 5.719-2.55 5.491-5.047 11.006-7.585 16.503-1.046 2.263-1.08 4.452.089 6.71 7.096 13.744 14.154 27.507 21.23 41.261 3.414 6.631 6.862 13.244 10.245 19.891 1.194 2.344 3.035 3.628 5.596 4.105 5.755 1.065 11.484 2.263 17.247 3.287 2.525.449 4.127 1.723 5.288 4.024 4.714 9.348 9.552 18.632 14.356 27.936 1.13 2.189 1.007 4.302-.584 6.154-.692.803-1.692 1.405-2.653 1.904-8.02 4.157-16.058 8.28-24.103 12.388-3.299 1.684-6.247.627-7.949-2.691-4.196-8.186-8.44-16.346-12.654-24.521-4.755-9.225-9.487-18.463-14.242-27.688-5.943-11.529-11.905-23.046-17.848-34.575-5.263-10.209-10.502-20.425-15.76-30.637-5.43-10.55-10.874-21.098-16.304-31.648-1.495-2.9-2.998-5.798-4.436-8.726-.363-.739-.495-1.593-.643-2.092l-.005-.003Z" fill="#3091F5"></path><path d="M61.223 76.129c2.403-1.254 4.642-2.437 6.895-3.596 8.49-4.365 16.989-8.708 25.47-13.086 3.546-1.83 6.589-.864 8.392 2.658a4852.352 4852.352 0 0 0 12.53 24.309c.398.767.398 1.34-.071 2.077-1.209 1.893-2.533 3.756-3.441 5.793-1.222 2.742-3.707 3.672-6.054 4.88-6.262 3.221-12.524 6.437-18.79 9.653-.226.117-.53.173-.665.357-.217.295-.321.67-.474 1.012.375.058.819.28 1.11.15 1.198-.535 2.351-1.172 3.522-1.774l17.32-8.899c.179-.092.368-.163.911-.4-1.311 2.199-2.434 4.1-3.574 5.991-3.331 5.52-6.655 11.045-10.03 16.542-.352.573-.939 1.098-1.54 1.414-5.526 2.893-11.084 5.722-16.61 8.614-.38.199-.57.752-.851 1.139.48.008 1.046.191 1.423 0 4.737-2.383 9.444-4.821 14.16-7.242.36-.186.737-.339 1.278-.339a8030.555 8030.555 0 0 1-3.714 6.144c-1.778 2.938-3.566 5.871-5.334 8.817-.74 1.231-.704 2.539-.092 3.782a215.565 215.565 0 0 0 3.567 6.894c.923 1.715 2.576 2.428 4.374 2.051a20569.89 20569.89 0 0 1 24.925-5.188c2.4-.5 4.805-.979 7.287-1.484 2.345 4.552 4.673 9.068 6.997 13.586 3.475 6.751 6.954 13.499 10.41 20.26 1.225 2.395 3.227 3.575 5.809 4.052 5.884 1.083 11.756 2.24 17.639 3.351 1.977.374 3.39 1.463 4.303 3.236 4.831 9.389 9.66 18.78 14.507 28.163 1.775 3.435.867 6.455-2.546 8.213-10.071 5.189-20.144 10.367-30.217 15.551-.712.367-1.421.739-2.459 1.276 1.535-3.379.053-5.968-1.332-8.631-4.581-8.8-9.107-17.63-13.645-26.455-1.112-2.161-2.885-3.359-5.247-3.805-5.92-1.116-11.83-2.286-17.754-3.374-2.277-.418-3.79-1.639-4.831-3.693-3.775-7.454-7.614-14.875-11.44-22.303a38292.54 38292.54 0 0 0-16.558-32.102 640.824 640.824 0 0 0-3.232-6.208c-1.023-1.932-1.084-3.826-.133-5.844 2.602-5.522 5.12-11.085 7.666-16.636.959-2.092.977-4.179-.087-6.249-4.987-9.691-9.964-19.385-14.963-29.067-.97-1.878-2.587-2.994-4.814-3.593l.003.003ZM172.2 213.837c-.015-2.653-1.88-3.92-3.742-2.974a3050.478 3050.478 0 0 0-18.784 9.651c-1.503.777-1.829 1.926-1.079 3.381.775 1.504 1.933 1.889 3.494 1.089 6.265-3.206 12.533-6.407 18.762-9.679.658-.347 1.071-1.157 1.347-1.468h.002Zm-24.881 4.477c.222-.071.648-.15 1.018-.339 6.26-3.213 12.517-6.434 18.767-9.668 1.545-.8 1.839-1.804 1.056-3.362-.748-1.485-1.87-1.893-3.347-1.151a796.884 796.884 0 0 0-7.816 3.99c-3.729 1.922-7.451 3.859-11.175 5.788-1.125.581-1.413 1.521-1.117 2.673.331 1.292 1.298 2.095 2.612 2.069h.002Zm-7.471-33.389c-.179-.313-.289-.642-.38-.637-.431.026-.903.049-1.276.24a6084.725 6084.725 0 0 0-27.603 14.176c-.387.202-.586.765-.872 1.157.477.013 1.041.202 1.418.013 3.49-1.733 6.949-3.529 10.415-5.311 5.732-2.946 11.464-5.892 17.191-8.85.385-.199.714-.505 1.107-.788Zm22.067 5.645c-.454-1.119-1.064-.762-1.691-.441L134.55 203.33c-.263.135-.572.252-.743.471-.15.194-.262.584-.166.765.105.191.48.331.73.323.276-.007.551-.198.814-.333 3.885-1.996 7.77-3.996 11.655-5.992 4.673-2.403 9.351-4.798 14.019-7.214.385-.199.707-.52 1.054-.783l.002.003Zm-37.847-8.968-.283-.234c-.02-.212.018-.451-.071-.627-.827-1.621-1.572-3.298-2.556-4.819-.679-1.043-1.906-1.096-2.995-.617-1.24.543-2.434 1.2-3.604 1.881-1.148.667-1.577 1.967-1.018 3.195a48.25 48.25 0 0 0 2.094 4.063c.696 1.202 2.051 1.602 3.319 1.027 1.158-.525 2.357-1.025 3.382-1.756.714-.51 1.163-1.394 1.732-2.11v-.003Zm-9.032 4.671c-.258-.782-.352-1.243-.551-1.654a98.753 98.753 0 0 0-1.763-3.384c-.829-1.526-2.196-1.98-3.75-1.231a71.079 71.079 0 0 0-3.058 1.573c-1.48.8-1.926 2.117-1.197 3.654a58.568 58.568 0 0 0 1.865 3.619c.793 1.404 2.13 1.845 3.574 1.169 1.15-.537 2.341-1.052 3.359-1.794.679-.494 1.082-1.366 1.526-1.954l-.005.002Zm-5.814-11.373c-.005-.036.028-.319-.079-.535-.775-1.552-1.495-3.143-2.405-4.616-.643-1.037-1.903-1.256-3.082-.716-1.155.53-2.283 1.129-3.397 1.738-1.4.765-1.835 2.128-1.133 3.56a99.489 99.489 0 0 0 1.87 3.617c.775 1.437 2.086 1.893 3.533 1.215a58.025 58.025 0 0 0 3.29-1.672c.919-.504 1.462-1.276 1.406-2.596l-.003.005Zm18.134-8.662c-.862-2.388-1.658-4.498-3.265-6.091-.467-.461-1.653-.586-2.339-.357-1.347.449-2.617 1.185-3.839 1.932-1.258.77-1.576 1.983-.964 3.298a60.042 60.042 0 0 0 1.949 3.837c.727 1.31 2.058 1.787 3.356 1.191 1.227-.564 2.477-1.132 3.579-1.899.658-.456 1.049-1.297 1.521-1.914l.002.003Zm-23.422-1.952c-.905-1.81-1.648-3.415-2.497-4.962-.811-1.481-2.138-1.855-3.678-1.119a69.077 69.077 0 0 0-3.054 1.578c-1.484.805-1.959 2.122-1.245 3.641a46.89 46.89 0 0 0 1.955 3.716c.793 1.353 2.096 1.738 3.497 1.078 1.15-.543 2.352-1.04 3.372-1.779.681-.494 1.079-1.376 1.653-2.151l-.003-.002Zm28.973 12.892c-.186-.703-.227-1.098-.39-1.43-.636-1.294-1.276-2.589-1.982-3.843-.789-1.399-2.12-1.814-3.582-1.131a57.77 57.77 0 0 0-3.171 1.628c-1.418.772-1.895 2.093-1.221 3.55a49.295 49.295 0 0 0 1.925 3.726c.822 1.437 2.085 1.814 3.572 1.116 1.112-.522 2.285-.981 3.275-1.687.694-.494 1.125-1.358 1.571-1.926l.003-.003Zm-20.07-17.375c-1.036-2.299-1.661-4.513-3.378-6.032-.512-.454-1.721-.482-2.461-.242-1.276.41-2.462 1.136-3.638 1.814-1.153.665-1.599 1.973-1.048 3.196a42.523 42.523 0 0 0 2.153 4.182c.683 1.159 2.01 1.529 3.227.968 1.193-.548 2.42-1.083 3.484-1.835.686-.484 1.107-1.348 1.658-2.054l.003.003Zm1.15 4.179c-.785.273-1.278.395-1.727.612a76.006 76.006 0 0 0-3.043 1.572c-1.411.762-1.872 2.09-1.183 3.54a75.46 75.46 0 0 0 1.913 3.721c.744 1.371 2.176 1.817 3.571 1.126a69.038 69.038 0 0 0 3.257-1.707c1.401-.788 1.811-1.97 1.146-3.425-.6-1.305-1.184-2.638-1.98-3.823-.469-.698-1.339-1.129-1.954-1.618v.002Zm7.747-8.72-.212-.184c-.043-.29-.015-.616-.14-.866-.755-1.509-1.464-3.053-2.352-4.483-.711-1.149-1.969-1.396-3.26-.798a44.04 44.04 0 0 0-3.369 1.751c-1.273.729-1.72 2.077-1.115 3.369a63.88 63.88 0 0 0 1.959 3.841c.701 1.271 1.974 1.809 3.219 1.266 1.314-.571 2.627-1.203 3.811-1.998.628-.423.98-1.254 1.457-1.901l.002.003ZM94.575 82.979c.023-1.822-1.484-3.336-3.308-3.326a3.262 3.262 0 0 0-3.252 3.24c-.026 1.84 1.44 3.317 3.295 3.317 1.755 0 3.242-1.473 3.265-3.231Zm-3.75-8.808c-.012 1.812 1.508 3.313 3.34 3.296 1.711-.016 3.252-1.583 3.242-3.293a3.306 3.306 0 0 0-3.237-3.267c-1.86-.028-3.33 1.407-3.342 3.262l-.002.002Zm12.502 11.585c.008-1.827-1.484-3.307-3.326-3.3-1.72.008-3.22 1.53-3.235 3.278-.012 1.745 1.462 3.254 3.22 3.292a3.262 3.262 0 0 0 3.341-3.27Zm-14.945 9.228c1.839.026 3.352-1.427 3.385-3.254.03-1.764-1.418-3.244-3.207-3.275-1.892-.03-3.362 1.374-3.364 3.222-.005 1.773 1.449 3.282 3.186 3.307Zm-2.62-14.89c-.005-1.766-1.484-3.27-3.224-3.277-1.783-.008-3.34 1.565-3.306 3.34.033 1.81 1.467 3.24 3.242 3.24 1.872 0 3.296-1.43 3.29-3.306l-.002.003Z" fill="#FFB3B3"></path><path d="M96.86 150.16c5.105-2.628 10.013-5.133 14.898-7.684 2.349-1.225 2.989-3.323 1.801-5.665a779.671 779.671 0 0 0-3.373-6.562c-1.076-2.074-3.29-2.806-5.402-1.73-5.86 2.981-11.704 5.996-17.555 8.993-.212.11-.439.189-.88.099l60.312-99.877c.14 4.898.281 9.768.426 14.873-2.237.825-4.206 2.518-5.273 5.145-.742 1.827-.895 3.695-.398 5.61 1.118 4.306 4.365 6.582 9.854 6.862 1.217 3.53 2.947 6.807 5.475 9.63 2.522 2.816 5.571 4.893 9.351 6.438-4.806 1.335-9.03 3.142-12.91 5.7-9.456 6.231-15.433 14.955-18.501 25.77-2.268 7.992-3.283 16.116-2.625 24.414.071.897-.337 1.067-1.041 1.213a5980.172 5980.172 0 0 0-20.947 4.314c-4.143.862-8.278 1.759-12.418 2.628-.166.035-.362-.072-.798-.169l.005-.002Z" fill="#FDD200"></path><path d="M112.783 138.722c-.038 1.489-.839 2.166-1.882 2.699-5.699 2.913-11.392 5.841-17.086 8.764-.867.446-1.722.923-2.607 1.328-1.388.637-2.658.293-3.382-1.032a155.36 155.36 0 0 1-3.668-7.123c-.712-1.483-.074-2.709 1.632-3.583 5.018-2.569 10.03-5.145 15.048-7.717 1.584-.813 3.152-1.656 4.762-2.413 1.247-.586 2.541-.222 3.194.971 1.301 2.375 2.512 4.798 3.737 7.214.168.329.204.727.25.897l.002-.005Z" fill="#FCFCFC"></path><path d="m41.836 84.699-7.79-15.11 8.27-4.28c2.6 5.035 5.165 10.007 7.795 15.103l-8.275 4.284v.003Z" fill="#2F90F3"></path><path d="M12.53 6.906c.01 3.127-2.408 5.609-5.492 5.64-3.122.03-5.72-2.526-5.701-5.617.018-3.04 2.54-5.543 5.62-5.579 3.078-.035 5.563 2.442 5.573 5.556Z" fill="#FFB3B3"></path><path d="m253.478 61.96-.161-.09c.028-.028.061-.084.082-.079.058.013.112.051.168.08l-.089.088Z" fill="#FEFEFE"></path><path d="M147.067 37.311c.023.03.066.064.063.094 0 .031-.051.056-.079.084-.023-.033-.066-.066-.063-.096 0-.03.051-.056.079-.084v.002Z" fill="#FDD200"></path><path d="M172.692 72.61c-3.55-.031-6.767-2.519-7.627-5.829-.341-1.323-.273-2.615.485-3.8 1.38-2.153 4.155-2.186 5.367.049.906 1.671 2.105 2.706 3.987 2.969.416.058.827.206 1.217.367 2.069.84 2.474 3.259.803 4.755-1.242 1.114-2.76 1.427-4.232 1.486v.002Zm-.028-1.232c.883-.26 1.85-.374 2.618-.828.566-.334 1.145-1.078 1.224-1.7.122-.968-.834-1.32-1.627-1.445-2.396-.377-4.115-1.539-5.179-3.776-.563-1.188-2.178-1.173-2.887-.044a3.513 3.513 0 0 0-.508 1.657c-.13 3.053 3.015 6.006 6.359 6.136Z" fill="#120F03"></path><path d="M185.959 56.047c-.38 0-.765.033-1.14-.005-1.405-.15-2.857-.311-3.52-1.822-.712-1.626-.311-3.163.681-4.539 1.247-1.733 3.513-2.413 5.546-1.75 2.058.67 3.448 2.507 3.512 4.645.051 1.718-.834 2.898-2.561 3.272-.821.179-1.676.202-2.515.296 0-.03-.005-.064-.005-.094l.002-.003Zm.072-1.343c.551-.038 1.194-.036 1.819-.135 1.425-.227 1.882-.851 1.749-2.28-.137-1.494-1.124-2.664-2.614-3.097-1.431-.418-3.156.005-3.826 1.274-.477.9-.778 2.123-.582 3.086.217 1.068 1.49 1.055 2.479 1.099.296.012.595.033.975.056v-.003Z" fill="#151103"></path><path d="M169.04 56.065c-.169 0-.34.007-.508 0-2.584-.112-3.875-.872-4.237-2.485-.459-2.049.742-4.434 2.722-5.4 3.183-1.555 6.956.601 7.231 4.128.154 1.963-.844 3.26-2.803 3.578-.793.13-1.599.168-2.4.247 0-.023-.005-.045-.005-.068Zm.25-1.356c.443-.033 1.084-.038 1.706-.138 1.615-.252 2.151-1.073 1.796-2.668-.355-1.585-1.658-2.719-3.306-2.87-1.528-.14-3.115.885-3.676 2.378-.709 1.881.018 3.038 2.026 3.214.421.035.844.05 1.454.087v-.003Z" fill="#141003"></path><path d="M181.092 61.39c-1.303-1.691-2.403-3.118-3.502-4.548-.207-.268-.502-.512-.594-.816-.135-.446-.125-.937-.176-1.409.41.186.954.265 1.206.579a145.01 145.01 0 0 1 4.105 5.323c.405.55.65 1.216.966 1.83-.714.133-1.423.35-2.14.382a37.312 37.312 0 0 1-4.066-.012c-.388-.023-.755-.434-1.13-.668.388-.222.768-.607 1.168-.632 1.263-.082 2.533-.03 4.161-.03l.002.002Z" fill="#100C04"></path><path d="M168.185 41.947c.982.436 2 .815 2.928 1.345.258.148.258.75.378 1.142-.367-.008-.811.115-1.089-.046-2.513-1.452-4.352-.963-5.826 1.552-.159.27-.613.372-.929.55-.097-.354-.352-.754-.265-1.057.536-1.86 2.576-3.229 4.803-3.486Z" fill="#151103"></path><path d="M187.763 41.837c2.12.276 4.033 1.517 4.668 3.303.122.342-.112.808-.181 1.218-.334-.209-.809-.339-.985-.642-1.375-2.383-3.461-2.943-5.775-1.555-.311.187-.796.082-1.199.113.156-.416.197-1.048.49-1.206.944-.504 1.979-.836 2.979-1.23h.003Z" fill="#141003"></path><path d="M172.2 213.836c-.275.311-.689 1.124-1.347 1.468-6.229 3.273-12.496 6.473-18.761 9.679-1.561.798-2.719.416-3.495-1.088-.75-1.453-.423-2.604 1.079-3.382a3076.49 3076.49 0 0 1 18.785-9.651c1.862-.948 3.729.322 3.742 2.974h-.003Zm-21.677 10.339c.566-.26.918-.405 1.255-.578 6.028-3.091 12.045-6.195 18.083-9.269.814-.413 1.219-.848.742-1.763-.505-.966-1.16-.732-1.91-.342-3.339 1.741-6.689 3.461-10.035 5.189-2.748 1.417-5.508 2.808-8.224 4.281-.365.199-.725.816-.699 1.216.028.436.505.841.791 1.264l-.003.002Z" fill="#0F0606"></path><path d="M147.319 218.314c-1.313.026-2.28-.777-2.612-2.069-.296-1.154-.008-2.092 1.117-2.673 3.727-1.927 7.449-3.864 11.176-5.788a831.527 831.527 0 0 1 7.815-3.991c1.475-.741 2.6-.333 3.347 1.152.781 1.557.49 2.559-1.056 3.362a5935.62 5935.62 0 0 1-18.766 9.668c-.37.189-.796.268-1.018.339h-.003Zm19.841-11.791c.002-1.407-.893-1.95-1.916-1.427-6.188 3.172-12.361 6.368-18.552 9.533-.727.372-.914.811-.544 1.524.37.709.842 1.05 1.633.576.362-.216.75-.392 1.125-.586 5.737-2.938 11.474-5.872 17.203-8.825.441-.229.806-.607 1.051-.795Zm-27.312-21.598c-.393.283-.722.589-1.107.788-5.727 2.958-11.459 5.902-17.191 8.85-3.466 1.782-6.925 3.578-10.415 5.311-.377.189-.941 0-1.418-.013.286-.395.485-.958.872-1.157a5784.156 5784.156 0 0 1 27.603-14.176c.373-.191.844-.214 1.276-.24.089-.005.199.326.38.637Zm22.067 5.645c-.347.262-.668.583-1.053.782-4.668 2.416-9.344 4.812-14.02 7.215-3.885 1.998-7.767 3.998-11.655 5.991-.262.135-.538.324-.813.334-.25.007-.625-.133-.73-.324-.097-.178.013-.568.166-.764.168-.217.479-.337.742-.472 8.558-4.401 17.116-8.799 25.674-13.201.625-.321 1.235-.677 1.692.441l-.003-.002Z" fill="#100706"></path><path d="M124.068 181.602c-.569.716-1.018 1.6-1.732 2.11-1.023.731-2.224 1.231-3.382 1.756-1.271.578-2.625.175-3.319-1.027a46.508 46.508 0 0 1-2.094-4.063c-.559-1.228-.13-2.528 1.018-3.195 1.17-.681 2.364-1.338 3.604-1.881 1.089-.476 2.319-.426 2.995.617.987 1.519 1.729 3.198 2.556 4.819.089.176.051.415.071.627l.283.234v.003Zm-9.591-2.233c.936 1.662 1.755 3.227 2.711 4.702.154.237.983.235 1.386.069 1.053-.433 2.048-1.009 3.056-1.547.8-.428 1.053-1.04.607-1.893-.587-1.122-1.125-2.271-1.725-3.387-.474-.887-1.158-1.165-2.107-.632-.959.537-1.977.973-2.915 1.542-.38.229-.62.69-1.011 1.146h-.002Z" fill="#100A09"></path><path d="M115.036 186.273c-.442.591-.847 1.46-1.526 1.955-1.018.739-2.206 1.256-3.359 1.794-1.444.672-2.781.234-3.574-1.17a58.568 58.568 0 0 1-1.865-3.619c-.727-1.537-.283-2.857 1.197-3.654a74.67 74.67 0 0 1 3.058-1.573c1.554-.749 2.921-.295 3.75 1.231a99.584 99.584 0 0 1 1.763 3.385c.201.407.295.869.551 1.653l.005-.002Zm-6.156 2.918c1.539-.869 2.977-1.636 4.35-2.51.216-.138.29-.836.148-1.147-.615-1.341-1.255-2.684-2.064-3.907-.235-.354-1.151-.571-1.597-.413-1.104.393-2.127 1.022-3.168 1.585-.814.441-.987 1.112-.574 1.93.574 1.129 1.125 2.273 1.76 3.366.227.39.671.655 1.145 1.098v-.002Z" fill="#110B0A"></path><path d="M109.222 174.899c.056 1.318-.484 2.093-1.405 2.597a58.732 58.732 0 0 1-3.291 1.672c-1.446.678-2.757.222-3.533-1.216a101.047 101.047 0 0 1-1.87-3.616c-.701-1.432-.267-2.798 1.133-3.56 1.117-.609 2.242-1.208 3.398-1.738 1.178-.54 2.441-.321 3.081.716.911 1.471 1.63 3.063 2.406 4.615.107.214.074.5.079.536l.002-.006Zm-4.441-4.898c-1.339.671-2.51 1.259-3.683 1.84-.959.474-1.128 1.206-.674 2.113.551 1.101 1.125 2.189 1.694 3.28.467.894 1.186 1.034 2.038.622a60.934 60.934 0 0 0 2.829-1.461c.74-.407 1.202-.988.763-1.875-.602-1.216-1.202-2.437-1.885-3.606-.222-.383-.707-.609-1.082-.915v.002Z" fill="#100706"></path><path d="M127.356 166.238c-.472.616-.862 1.457-1.52 1.913-1.102.765-2.352 1.333-3.579 1.899-1.298.596-2.63.12-3.357-1.19a61.67 61.67 0 0 1-1.949-3.838c-.612-1.315-.293-2.528.965-3.298 1.221-.746 2.492-1.483 3.839-1.931.686-.23 1.872-.105 2.339.356 1.607 1.591 2.403 3.703 3.265 6.091l-.003-.002Zm-6.073 2.861c1.436-.83 2.882-1.59 4.219-2.507.237-.163.178-1.045-.008-1.483-.474-1.124-1.097-2.187-1.658-3.273-.446-.863-1.089-1.113-1.979-.649a137.29 137.29 0 0 1-2.942 1.488c-.849.418-1.063 1.103-.691 1.898a48.005 48.005 0 0 0 1.934 3.711c.181.313.632.471 1.125.815Z" fill="#100A09"></path><path d="M103.934 164.286c-.574.774-.972 1.659-1.653 2.151-1.017.739-2.221 1.233-3.372 1.778-1.4.663-2.704.276-3.497-1.078a46.015 46.015 0 0 1-1.954-3.715c-.714-1.519-.242-2.837 1.245-3.642a66.971 66.971 0 0 1 3.053-1.577c1.543-.737 2.87-.36 3.678 1.118.847 1.547 1.592 3.153 2.498 4.962l.002.003Zm-9.57-2.036c.877 1.569 1.69 3.132 2.64 4.607.15.235.969.24 1.367.077 1.05-.426 2.053-.982 3.051-1.524.834-.457 1.094-1.104.597-2.006-.61-1.106-1.171-2.24-1.745-3.366-.398-.783-1.033-1.007-1.793-.648a41.174 41.174 0 0 0-3.37 1.756c-.309.181-.449.647-.748 1.106v-.002Z" fill="#110B0A"></path><path d="M132.907 177.178c-.447.568-.878 1.429-1.571 1.926-.99.706-2.161 1.165-3.276 1.687-1.487.701-2.75.324-3.571-1.116a47.357 47.357 0 0 1-1.926-3.726c-.673-1.455-.196-2.777 1.222-3.549a56.399 56.399 0 0 1 3.171-1.629c1.461-.68 2.793-.267 3.581 1.132.707 1.256 1.347 2.551 1.982 3.843.163.333.204.726.39 1.429l-.002.003Zm-1.426-.306c-.189-.456-.296-.775-.449-1.07-.518-1.017-1.076-2.011-1.571-3.038-.467-.968-1.148-1.154-2.072-.691-.943.474-1.897.933-2.834 1.422-.913.477-1.142 1.188-.665 2.113l1.683 3.264c.452.877 1.138 1.096 2.008.666 1.061-.523 2.13-1.04 3.14-1.649.344-.209.525-.691.757-1.017h.003Z" fill="#0E0606"></path><path d="M112.837 159.803c-.551.706-.972 1.57-1.658 2.054-1.064.752-2.291 1.287-3.485 1.835-1.219.56-2.545.191-3.227-.969a42.515 42.515 0 0 1-2.152-4.182c-.549-1.223-.105-2.53 1.048-3.195 1.176-.678 2.359-1.405 3.637-1.815.743-.237 1.949-.211 2.462.242 1.717 1.519 2.342 3.731 3.377 6.032l-.002-.002Zm-1.462-.146c-.747-1.465-1.436-2.821-2.13-4.174-.462-.899-1.163-1.042-2.023-.606-.982.497-1.966.996-2.938 1.513-.822.439-1.01 1.083-.579 1.917.602 1.162 1.171 2.344 1.796 3.494.403.739 1.033.973 1.821.565 1.053-.545 2.125-1.065 3.142-1.671.358-.214.585-.65.911-1.035v-.003Z" fill="#110B0A"></path><path d="M113.987 163.982c.612.49 1.482.92 1.954 1.619.796 1.182 1.383 2.515 1.98 3.822.665 1.455.255 2.64-1.146 3.425a70.98 70.98 0 0 1-3.257 1.708c-1.398.69-2.827.242-3.571-1.127a75.868 75.868 0 0 1-1.914-3.72c-.688-1.45-.227-2.778 1.184-3.54a81.017 81.017 0 0 1 3.043-1.572c.447-.217.942-.339 1.727-.612v-.003Zm3.082 6.54c-.937-1.657-1.748-3.222-2.715-4.684-.16-.242-1.043-.202-1.487-.028-.941.367-1.798.94-2.716 1.371-1.087.509-1.268 1.256-.737 2.27.548 1.05 1.081 2.108 1.622 3.163.449.874 1.13 1.091 2.002.66 1.023-.507 2.061-.994 3.036-1.583.382-.232.617-.711.995-1.167v-.002Z" fill="#100A09"></path><path d="M121.734 155.261c-.477.648-.829 1.478-1.456 1.901-1.184.798-2.498 1.428-3.811 1.998-1.245.541-2.518.006-3.22-1.266a65.992 65.992 0 0 1-1.959-3.841c-.604-1.292-.158-2.64 1.115-3.369a43.88 43.88 0 0 1 3.37-1.75c1.291-.599 2.548-.352 3.26.797.887 1.43 1.597 2.974 2.352 4.483.125.25.097.576.14.866l.212.184-.003-.003Zm-1.41-.206c-.75-1.471-1.437-2.816-2.128-4.162-.451-.884-1.125-1.08-2-.629l-3.045 1.567c-.733.377-.932.984-.587 1.695.604 1.256 1.181 2.543 1.961 3.687.268.393 1.202.686 1.661.53 1.145-.395 2.214-1.037 3.27-1.656.35-.206.559-.652.868-1.032Z" fill="#110B0A"></path><path d="M94.575 82.978c-.02 1.759-1.507 3.23-3.265 3.232-1.854 0-3.324-1.476-3.296-3.318a3.262 3.262 0 0 1 3.253-3.24c1.824-.01 3.331 1.504 3.308 3.326Zm-3.278 1.904c1.034.005 1.878-.897 1.857-1.988-.017-1.088-.74-1.806-1.831-1.827-1.09-.018-1.992.826-1.985 1.858.005 1.02.939 1.952 1.96 1.957Z" fill="#0F0606"></path><path d="M90.826 74.171a3.249 3.249 0 0 1 3.341-3.262 3.305 3.305 0 0 1 3.237 3.267c.013 1.708-1.53 3.275-3.242 3.293-1.832.018-3.352-1.48-3.339-3.295l.003-.003Zm5.168.028c.017-1.068-.855-1.972-1.896-1.965a1.949 1.949 0 0 0-1.918 1.958c.005 1.024.793 1.817 1.842 1.852 1.107.038 1.954-.754 1.971-1.847v.002Zm7.333 11.557a3.262 3.262 0 0 1-3.341 3.27c-1.758-.038-3.232-1.547-3.22-3.293.013-1.75 1.516-3.272 3.235-3.277 1.842-.008 3.334 1.473 3.326 3.3Zm-3.239-1.906c-1.09-.008-1.924.82-1.926 1.914 0 1.001.829 1.88 1.81 1.924 1.052.043 2.057-.95 2.026-2.008-.028-.964-.926-1.82-1.913-1.827l.003-.003Z" fill="#100706"></path><path d="M88.382 94.984c-1.737-.025-3.191-1.534-3.186-3.308.005-1.847 1.472-3.252 3.364-3.22 1.786.03 3.237 1.51 3.207 3.274-.033 1.827-1.543 3.28-3.385 3.254Zm.069-1.371c1.063.023 1.93-.844 1.928-1.921a1.899 1.899 0 0 0-1.824-1.896c-1.03-.046-1.972.818-2.023 1.86-.048 1.001.865 1.934 1.919 1.957Z" fill="#0F0606"></path><path d="M85.762 80.094c.005 1.873-1.418 3.305-3.29 3.305-1.776 0-3.21-1.432-3.243-3.239-.033-1.776 1.523-3.346 3.306-3.34 1.74.004 3.22 1.508 3.225 3.277l.002-.003Zm-3.234-1.863c-1.082 0-1.942.856-1.926 1.92a1.922 1.922 0 0 0 1.961 1.89c1-.023 1.842-.866 1.857-1.865a1.895 1.895 0 0 0-1.892-1.945Z" fill="#100706"></path><path d="M172.664 71.378c-3.344-.13-6.489-3.083-6.359-6.136a3.505 3.505 0 0 1 .508-1.657c.709-1.131 2.321-1.144 2.887.044 1.064 2.237 2.786 3.4 5.179 3.776.793.125 1.749.48 1.627 1.445-.079.625-.658 1.366-1.224 1.7-.768.454-1.735.568-2.618.828Zm13.367-16.674c-.38-.023-.679-.043-.975-.056-.989-.04-2.26-.03-2.479-1.098-.196-.961.105-2.184.582-3.086.671-1.27 2.395-1.692 3.826-1.275 1.49.436 2.477 1.606 2.615 3.097.132 1.43-.324 2.051-1.75 2.28-.625.1-1.268.097-1.819.136v.002Zm-16.741.006c-.613-.037-1.033-.05-1.454-.087-2.008-.176-2.737-1.333-2.026-3.214.564-1.493 2.148-2.518 3.676-2.378 1.648.153 2.954 1.285 3.306 2.87.355 1.595-.181 2.416-1.796 2.668-.625.097-1.263.102-1.706.138v.002Z" fill="#F9CF00"></path><path d="M150.523 224.176c-.286-.423-.763-.831-.791-1.264-.025-.4.334-1.017.699-1.216 2.717-1.473 5.477-2.864 8.224-4.281 3.347-1.728 6.696-3.448 10.035-5.189.75-.39 1.408-.624 1.911.342.477.915.071 1.35-.743 1.763-6.037 3.071-12.057 6.177-18.083 9.269-.336.173-.686.318-1.255.578l.003-.002Zm16.637-17.653c-.245.188-.607.565-1.051.795-5.727 2.953-11.466 5.887-17.203 8.825-.378.194-.765.367-1.125.586-.791.477-1.263.135-1.633-.576-.37-.713-.186-1.152.544-1.524 6.191-3.165 12.366-6.361 18.552-9.533 1.02-.523 1.918.02 1.916 1.427Z" fill="#FFB3B3"></path><path d="M114.477 179.369c.39-.456.63-.917 1.01-1.147.939-.568 1.957-1.004 2.916-1.541.951-.533 1.632-.253 2.107.632.599 1.116 1.135 2.265 1.724 3.387.446.853.194 1.465-.607 1.893-1.008.538-2.002 1.114-3.056 1.547-.403.166-1.232.166-1.385-.069-.957-1.475-1.775-3.04-2.712-4.702h.003Zm-5.597 9.822c-.474-.443-.918-.706-1.145-1.098-.635-1.093-1.186-2.238-1.76-3.367-.416-.815-.24-1.488.574-1.929 1.041-.563 2.064-1.192 3.168-1.585.446-.158 1.362.059 1.597.413.808 1.226 1.449 2.569 2.064 3.907.142.311.068 1.009-.148 1.146-1.373.875-2.811 1.642-4.35 2.511v.002Z" fill="#F84E4E"></path><path d="M104.781 170.001c.373.306.857.536 1.082.915.683 1.17 1.28 2.391 1.885 3.606.441.887-.021 1.468-.763 1.876-.928.512-1.875.996-2.829 1.46-.852.413-1.571.273-2.038-.622-.569-1.09-1.143-2.179-1.694-3.279-.454-.908-.285-1.639.674-2.113 1.176-.581 2.347-1.172 3.683-1.84v-.003Z" fill="#FFB3B3"></path><path d="M121.283 169.1c-.493-.344-.944-.502-1.125-.816a47.296 47.296 0 0 1-1.934-3.71c-.37-.796-.155-1.484.691-1.899.985-.484 1.967-.981 2.942-1.488.892-.464 1.533-.217 1.979.65.561 1.088 1.184 2.148 1.658 3.272.186.438.245 1.32.008 1.483-1.337.917-2.783 1.679-4.219 2.508Zm-26.919-6.851c.298-.459.438-.922.747-1.106a40.346 40.346 0 0 1 3.37-1.756c.762-.357 1.395-.135 1.793.648.574 1.126 1.135 2.26 1.745 3.366.497.902.237 1.549-.597 2.006-.998.545-2 1.098-3.051 1.524-.398.16-1.217.158-1.367-.077-.947-1.475-1.76-3.038-2.64-4.607v.002Z" fill="#F84E4E"></path><path d="M131.481 176.872c-.235.326-.413.808-.758 1.017-1.01.609-2.079 1.124-3.14 1.649-.87.428-1.556.211-2.007-.666l-1.684-3.264c-.477-.925-.247-1.636.666-2.113.936-.489 1.89-.948 2.834-1.422.923-.464 1.604-.28 2.071.691.495 1.027 1.054 2.023 1.572 3.038.15.298.26.616.449 1.07h-.003Z" fill="#FFB3B3"></path><path d="M111.375 159.657c-.329.385-.553.821-.91 1.035-1.018.607-2.09 1.127-3.143 1.672-.788.408-1.416.173-1.821-.566-.628-1.149-1.194-2.329-1.796-3.494-.431-.833-.243-1.478.579-1.916.972-.517 1.954-1.017 2.938-1.514.86-.436 1.562-.293 2.023.607.694 1.353 1.383 2.709 2.13 4.174v.002Zm5.694 10.864c-.378.459-.613.938-.995 1.168-.977.588-2.013 1.075-3.036 1.582-.87.433-1.551.214-2.002-.66-.543-1.052-1.074-2.113-1.622-3.163-.531-1.014-.35-1.76.737-2.27.918-.431 1.775-1.004 2.716-1.371.447-.173 1.327-.217 1.488.028.964 1.463 1.777 3.027 2.714 4.684v.002Zm3.255-15.466c-.309.38-.518.826-.868 1.032-1.053.622-2.122 1.264-3.27 1.657-.459.158-1.393-.135-1.661-.53-.778-1.144-1.357-2.431-1.961-3.688-.342-.711-.146-1.317.587-1.694l3.045-1.568c.875-.451 1.546-.255 2 .63.689 1.345 1.375 2.691 2.128 4.161Z" fill="#F84E4E"></path><path d="M91.297 84.882c-1.02-.005-1.953-.938-1.959-1.957-.005-1.03.898-1.876 1.985-1.858 1.092.018 1.814.737 1.832 1.827.017 1.089-.827 1.993-1.858 1.988ZM95.993 74.2c-.017 1.092-.862 1.885-1.971 1.847-1.049-.036-1.837-.828-1.842-1.853a1.948 1.948 0 0 1 1.918-1.957c1.041-.008 1.91.894 1.895 1.965v-.003Zm4.095 9.65c.987.005 1.885.864 1.913 1.827.03 1.058-.975 2.054-2.026 2.009-.982-.041-1.813-.923-1.81-1.925 0-1.09.836-1.918 1.925-1.913l-.002.002ZM88.45 93.613c-1.053-.02-1.969-.953-1.918-1.957.051-1.04.993-1.906 2.023-1.86a1.9 1.9 0 0 1 1.824 1.896 1.9 1.9 0 0 1-1.928 1.921Zm-5.922-15.382c1.06 0 1.91.869 1.892 1.944-.015 1-.857 1.843-1.857 1.866a1.92 1.92 0 0 1-1.961-1.891c-.016-1.06.844-1.916 1.926-1.919Z" fill="#FFB3B3"></path></g><defs><clipPath id="phone svg__a"><path fill="#fff" d="M0 0h265v261H0z"></path></clipPath></defs></svg> 