<?xml version="1.0" encoding="UTF-8"?> <svg xmlns="http://www.w3.org/2000/svg" id="_Слой_2" data-name="Слой 2" viewBox="0 0 120 251.28"><defs><style> .cls-1 { fill: #fefefd; } .cls-1, .cls-2, .cls-3, .cls-4, .cls-5, .cls-6, .cls-7, .cls-8, .cls-9, .cls-10, .cls-11, .cls-12, .cls-13, .cls-14, .cls-15, .cls-16, .cls-17, .cls-18, .cls-19, .cls-20, .cls-21 { stroke-width: 0px; } .cls-2 { fill: #fbed01; } .cls-3 { fill: #cac6c8; } .cls-4 { fill: #ec2125; } .cls-5 { fill: #d1cacc; } .cls-6 { fill: #c4c3c3; } .cls-7 { fill: #fdf002; } .cls-8 { fill: #aebfb6; } .cls-9 { fill: #fbec03; } .cls-10 { fill: #cac7c9; } .cls-11 { fill: #e37e81; } .cls-12 { fill: #186634; } .cls-13 { fill: #cac2c5; } .cls-14 { fill: #ec2025; } .cls-15 { fill: #eb2524; } .cls-16 { fill: #cbccce; } .cls-17 { fill: #cac3c5; } .cls-18 { fill: #528b67; } .cls-19 { fill: #c8c9cb; } .cls-20 { fill: #cbbec0; } .cls-21 { fill: #d3c2c3; } </style></defs><g id="_Слой_1-2" data-name="Слой 1"><g><path class="cls-3" d="M118.12,26.15c.63,0,1.26,0,1.88,0v16.08c-2.28,0-4.56.03-6.84-.03-.94-.03-1.14.32-1.12,1.19.05,2.19.02,4.38.02,6.73h-8.09v6.94h-7.9c-.03.63-.08,1.13-.08,1.63,0,19.64,0,39.28,0,58.92q0,1.64-1.65,1.64c-1.44,0-2.88.04-4.32-.01-.8-.03-1.03.28-1.02,1.05.04,2.23.01,4.47.01,6.85h-16.04c0,2.01,0,3.87,0,5.73-.62,0-1.23,0-1.82,0v-7.42h15.96v-7.53h6.77v-62.82h7.95c0-1.98.07-3.82-.03-5.65-.06-1.13.32-1.43,1.41-1.39,2.26.08,4.52.02,6.94.02v-7.13h7.95v-14.81Z"></path><path class="cls-17" d="M55.92,251.28c0-.42,0-.83,0-1.25h7.25v-8.13h8.96v-7.97h6.96v-30.96h8.04v-8.09h6.99v-5.77h1.84c0,2.27.03,4.46-.05,6.63,0,.19-.64.51-1,.52-1.48.06-2.97.12-4.43,0-1.29-.11-1.56.4-1.49,1.56.09,1.67-.03,3.36.04,5.04.04,1.03-.26,1.43-1.35,1.39-2.19-.07-4.39-.02-6.76-.02v30.95h-6.96v7.95c-1.31,0-2.49,0-3.67,0-1.44,0-2.88.03-4.32-.01-.73-.02-.98.24-.97.97.04,2.4.03,4.8.04,7.2h-9.12Z"></path><path class="cls-18" d="M0,140.88c.08.01.17.03.25.04,0,7.66-.01,15.33-.02,22.99,0,0,.03.08.03.08-.09-.02-.18-.04-.26-.07,0-7.68,0-15.36,0-23.04Z"></path><path class="cls-11" d="M46.8,0c.03.07.03.15,0,.23-2.38.02-4.75.04-7.13.05-.03-.09-.06-.19-.08-.28,2.4,0,4.8,0,7.2,0Z"></path><path class="cls-8" d="M0,163.92c.09.02.18.04.26.07-.09.06-.18.12-.26.17,0-.08,0-.16,0-.24Z"></path><path class="cls-14" d="M39.68.28c2.38-.02,4.75-.03,7.13-.05.06.79.12,1.58.18,2.38-.03.24-.09.47-.09.71,0,6.59,0,13.17,0,19.76,0,.23.07.45.12.73h6.99v-7.87h23.96v-7.9h16.15c0,1.3,0,2.64,0,3.99,0,1.26,0,2.53,0,3.83h16.06c0,1.55,0,2.94,0,4.32,0,1.21,0,2.42,0,3.78.71-.04,1.33-.07,1.95-.1h6c0,.84,0,1.58,0,2.32v14.81h-7.95v7.13c-2.41,0-4.68.06-6.94-.02-1.09-.04-1.47.26-1.41,1.39.1,1.83.03,3.67.03,5.65h-7.95v62.82h-6.77v7.53h-15.96v7.42c.59,0,1.2,0,1.82,0,1.97,0,3.95,0,5.99,0,.07.49.12.87.18,1.25,0,2.24,0,4.47,0,6.72h8.01c0,.8,0,1.5,0,2.2,0,6.93,0,13.87,0,20.94h-8.1v1.43c0,4.27,0,8.55,0,12.82q0,1.85,1.88,1.58h6.23v2.34c0,1.57,0,3.14,0,4.73h6.96v2.23c0,1.87,0,3.75,0,5.77h-6.99v8.09h-8.04v30.96h-6.96v7.97h-8.96v8.13h-7.25c-.8.05-.95-.38-.94-1.1.03-1.94-.02-3.87-.04-5.81,0-.35,0-.7,0-1.23h-14.87c0-27.93,0-55.85,0-83.78h16.07v-8.13h8.82v-26.04h-8.82v-9.04h-16.08c-.05-15.34-.13-30.68-.15-46.02-.03-19.86,0-39.72-.02-59.58,0-.48-.18-.96-.28-1.44.01-2.53.03-5.07.04-7.6Z"></path><path class="cls-13" d="M80.93,179.81q-1.88.27-1.88-1.58c0-4.27,0-8.55,0-12.82v-1.43h8.1c0-7.07,0-14,0-20.94q1.86.06,1.86,1.92c0,6.23,0,12.45,0,18.68v1.48h-6.06q-2.07,0-2.07,2.11c.01,4.19.03,8.38.04,12.57Z"></path><path class="cls-20" d="M80.9,140.84h-1.76c0-2.25,0-4.49,0-6.72.54.04,1.09.08,1.76.13v6.59Z"></path><path class="cls-5" d="M89.05,186.88h-1.89c0-1.6,0-3.17,0-4.73.27,0,.55.04.82,0,.85-.11,1.09.27,1.05,1.08-.05,1.22,0,2.43.02,3.65Z"></path><path class="cls-12" d="M40.08,158.13c0,27.93,0,55.85,0,83.78-.52.02-1.03.05-1.55.05-6.93.02-13.86.03-20.79.04h-1.62v-8.08h7.86c.03-.45.07-.76.07-1.07,0-16.97,0-33.95,0-50.92,0-.24-.03-.48-.05-.71v-1.2h-14.15c-.55-.03-1.1-.06-1.85-.1,0-4.93,0-9.83,0-14.72.03-.38.05-.75.08-1.19H1.89c-.55-.03-1.1-.06-1.65-.09,0-7.66.01-15.33.02-22.99h7.79v-15.99h7.94v-14.96h8.03v-39.01h7.62v-22.95h-5.73c-.59-.04-1.17-.07-1.82-.11V7.88c5.19,0,10.36,0,15.54,0,.1.48.28.96.28,1.44.01,19.86,0,39.72.02,59.58.02,15.34.1,30.68.15,46.02-2.66,0-5.32,0-8.13,0,0,3.11,0,6.02,0,8.93-2.94,0-5.88,0-8.88,0v26.14h8.86v8.14h8.15Z"></path><path class="cls-19" d="M25.92,48.01h5.73v1.2c-1.83,0-3.66,0-5.63,0-.04-.45-.07-.83-.1-1.2Z"></path><path class="cls-6" d="M17.74,241.99c6.93-.01,13.86-.03,20.79-.04.52,0,1.03-.03,1.55-.05,4.94,0,9.88,0,14.87,0,0,.53,0,.88,0,1.23-12.32,0-24.65,0-37.03,0-.07-.45-.12-.79-.18-1.14Z"></path><path class="cls-19" d="M9.84,180.01h14.15v1.2h-14.04c-.04-.44-.07-.82-.11-1.2Z"></path><path class="cls-8" d="M1.89,163.99h6.18c-.03.44-.06.82-.08,1.19H2.06c-.07-.51-.12-.85-.17-1.19Z"></path><path class="cls-10" d="M48.95,23.8h-1.93c-.05-.28-.12-.5-.12-.73,0-6.59,0-13.17,0-19.76,0-.24.06-.47.09-.71.6.03,1.19.05,1.96.09v21.1Z"></path><path class="cls-21" d="M112.11,23.83c-.62.03-1.23.06-1.95.1,0-1.35,0-2.56,0-3.78.58,0,1.16,0,1.95,0v3.68Z"></path><path class="cls-16" d="M96,15.83h-1.89c0-1.3,0-2.56,0-3.83q1.88.04,1.88,1.91c0,.64,0,1.28,0,1.92Z"></path><path class="cls-7" d="M56.16,123.96h8.82v26.04h-8.82s.02.02.02.02c0-8.69,0-17.37,0-26.06h-.01Z"></path><path class="cls-9" d="M56.16,123.96s.01,0,.01,0c-2.72.03-5.44.06-8.17.1-2.64-.01-5.28-.02-7.92-.03-.43-.03-.86-.09-1.29-.09-2.29-.03-4.57-.05-6.86-.07,0,0,.02,0,.02,0v-8.93c2.82,0,5.47,0,8.13,0,5.29,0,10.59,0,16.08,0v9.04Z"></path><path class="cls-2" d="M40.08,158.13h-8.15v-8.14h0c2.72,0,5.43-.02,8.15-.03,2.64,0,5.28,0,7.92,0l8.17.05s-.02-.02-.02-.02c0,2.63,0,5.25,0,8.13h-16.07Z"></path><path class="cls-7" d="M31.93,149.99h-8.86v-26.14c3,0,5.94,0,8.88,0,0,0-.02,0-.02,0,.02.48.06.96.06,1.43,0,6.6,0,13.19,0,19.79,0,1.64-.04,3.27-.07,4.91h0Z"></path><path class="cls-4" d="M56.17,150.01c-2.72-.02-5.45-.03-8.17-.05,0-8.64,0-17.28,0-25.91,2.72-.03,5.44-.06,8.17-.1,0,8.69,0,17.37,0,26.06Z"></path><path class="cls-15" d="M31.93,149.99c.02-1.64.06-3.27.07-4.91,0-6.6,0-13.19,0-19.79,0-.48-.04-.96-.06-1.43,2.29.02,4.57.04,6.86.07.43,0,.86.06,1.29.09,0,8.65,0,17.3,0,25.95-2.72.01-5.43.02-8.15.03Z"></path><path class="cls-1" d="M40.08,149.96c0-8.65,0-17.3,0-25.95,2.64.01,5.28.02,7.92.03,0,8.64,0,17.28,0,25.91-2.64,0-5.28,0-7.92,0Z"></path></g></g></svg> 