<?xml version="1.0" encoding="UTF-8"?> <svg xmlns="http://www.w3.org/2000/svg" id="_Слой_2" data-name="Слой 2" viewBox="0 0 531.88 113.53"><defs><style> .cls-1 { fill: #000; } .cls-1, .cls-2 { stroke-width: 0px; } .cls-2 { fill: #f95050; } </style></defs><g id="_Слой_1-2" data-name="Слой 1"><g><g><path class="cls-2" d="M52.35,39.77c-1.91-6.27-3.9-11.65-5.98-16.13-2.08-4.48-4.19-8.09-6.35-10.83-2.16-2.74-4.41-4.75-6.73-6.05-2.33-1.29-4.76-1.94-7.28-1.94v47.8c1.23-.1,2.72-.8,4.46-2.09,1.74-1.29,3.54-3.53,5.39-6.72,1.85-3.19,3.34-6.82,4.46-10.9h.08v41.68h-.08c-1.57-5.77-3.66-10.48-6.27-14.12-2.61-3.63-5.29-5.55-8.04-5.75v52.88c3.87-.1,7.32-1.47,10.35-4.11,3.03-2.64,5.85-6.47,8.46-11.5,2.61-5.03,5.12-11.48,7.53-19.35h.08v37.35H.76v-2.39h6.73V10.49L0,2.43h52.44v37.35h-.08Z"></path><path class="cls-2" d="M92.75,112.97c-9.71,0-16.69-3.81-20.96-11.43-4.26-7.62-6.4-19.54-6.4-35.78V10.34l-7.49-7.92h33.5l-7.49,7.92v57.51c0,9.36.45,16.96,1.35,22.78.9,5.83,2.31,10.23,4.25,13.22,1.94,2.99,4.61,4.48,8.04,4.48,4.82,0,8.36-3.29,10.6-9.86,2.24-6.57,3.17-16.98,2.78-31.22l-1.43-56.92-10.02-7.92h23.9l-7.49,7.92-1.51,61.7c-.23,9.76-1,17.53-2.31,23.3-1.32,5.78-3.44,10.16-6.35,13.15-2.92,2.99-7.24,4.48-12.96,4.48Z"></path></g><g><path class="cls-1" d="M197.32,92.34v-3.5h-3.5v3.5h1.08v7.68h-65.23v-7.68h1.08v-3.5h-3.5v3.5h-1.08v11.19h4.58v6.87h63.08v-6.87h4.58v-11.19h-1.08ZM190.31,106.89h-56.07v-3.37h56.07v3.37Z"></path><path class="cls-1" d="M134.24,87.48h56.07v1.35h3.5v-3.5h-3.37v-1.35h-12.53v-3.5h-3.5v-2.8h-3.5v-22.27h2.29v-3.5h1.75v-9.84h1.75v-9.97h1.75v-9.97h2.83v-11.46h-3.5v7.95h-17.12v3.5h14.29v9.97h-1.75v9.97h-1.75v9.84h-18.6v-9.97h-1.75v-9.97h-1.75v-9.84h7.82v-3.5h-10.38v-7.99h1.62v-2.8h3.5v-1.75h20.89v1.75h3.5v2.83h3.5v-3.5h-3.5v-2.83h-3.5v-1.75h-20.89v1.75h-3.5v2.8h-3.5v3.47h-1.62v11.52h2.56v9.84h1.75v9.97h1.75v9.97h1.75v3.5h2.56v22.27h-3.5v2.8h-3.5v3.5h-12.4v1.35h-3.5v3.5h3.5v-1.35ZM150.15,81.18h3.5v-2.86h3.5v-22.91h10.24v19.41h-6.6v3.5h10.11v2.86h3.5v2.8h-24.26v-2.8Z"></path></g><g><path class="cls-1" d="M235.61,113.53c-3.25,0-6.75-.47-10.48-1.42-3.73-.95-7.34-2.46-10.82-4.56l4.97-38.24h.08l11.7,39.14c1.35,1,2.81,1.49,4.38,1.49,2.97,0,5.44-1.57,7.41-4.71,1.96-3.14,2.95-7.1,2.95-11.88,0-7.47-2.36-13.44-7.07-17.93l-9.59-9.26c-8.3-8.07-12.46-19.02-12.46-32.86,0-4.58.48-8.91,1.43-13,.95-4.08,2.36-7.64,4.21-10.68,1.85-3.04,4.12-5.4,6.82-7.1,2.69-1.69,5.69-2.54,9.01-2.54,6.9,0,13.27,2.19,19.11,6.57l-4.97,33.01h-.08l-11.11-35.4c-1.35-.6-2.72-.9-4.12-.9-1.01,0-2.13.42-3.37,1.27-1.24.85-2.31,2.42-3.24,4.71-.93,2.29-1.39,4.88-1.39,7.77,0,3.39.64,6.62,1.94,9.71,1.29,3.09,3.42,6.18,6.4,9.26l11.03,11.8c3.65,3.88,6.41,8.24,8.29,13.07,1.88,4.83,2.82,10.53,2.82,17.1,0,4.98-.58,9.66-1.73,14.04-1.15,4.38-2.79,8.19-4.92,11.43-2.13,3.24-4.67,5.73-7.62,7.47-2.95,1.74-6.13,2.61-9.55,2.61Z"></path><path class="cls-1" d="M324.16,2.99v42.13h-.08c-6.06-24.7-13.04-37.89-20.96-39.59v102.63h7.58v2.39h-33.67v-2.39h7.58V5.53c-7.86,1.69-14.81,14.89-20.87,39.59h-.08V2.99h60.51Z"></path><path class="cls-1" d="M377.43,108.15h3.87v2.39h-30.97v-2.39h6.9l-6.65-28.08h-19.36l-5.13,28.08h8.67v2.39h-18.6v-2.39h3.45L346.38,0h4.38l26.68,108.15ZM331.65,77.38h18.26l-10.35-43.32-7.91,43.32Z"></path><path class="cls-1" d="M464.96,108.15h6.4v2.39h-33.41v-2.39h8.42l-6.65-91.57-17.76,94.71h-4.63l-21.13-94.86-2.27,91.72h8.67v2.39h-20.45v-2.39h5.39l7.41-96.95v-.15l-7.58-8.07h25.75l14.73,68.57,9.34-68.57h28.45l-7.57,8.07,6.9,97.1Z"></path><path class="cls-1" d="M531.88,35.11c0,5.38-.7,10.26-2.1,14.64-1.4,4.38-3.45,8.09-6.14,11.13-2.69,3.04-6.02,5.35-9.97,6.95-3.96,1.59-8.4,2.44-13.34,2.54v37.79h7.58v2.39h-32.82v-2.39h6.73V11.05l-7.49-8.07h27.35c4.99,0,9.41.8,13.26,2.39,3.84,1.59,7.01,3.81,9.51,6.65,2.5,2.84,4.36,6.25,5.6,10.23,1.23,3.98,1.85,8.27,1.85,12.85ZM501.24,5.38h-.93v62.59c3.7-.1,6.66-3.06,8.88-8.89,2.22-5.83,3.32-13.77,3.32-23.83s-1.02-16.93-3.07-22.11c-2.05-5.18-4.79-7.77-8.21-7.77Z"></path></g></g></g></svg> 