<?xml version="1.0" encoding="UTF-8"?> <svg xmlns="http://www.w3.org/2000/svg" xmlns:xlink="http://www.w3.org/1999/xlink" version="1.1" viewBox="0 0 691 519"><defs><style> .cls-1 { opacity: .2; } .cls-1, .cls-2 { mix-blend-mode: multiply; } .cls-3, .cls-4, .cls-5, .cls-6, .cls-7, .cls-8, .cls-9, .cls-10, .cls-11, .cls-12 { fill: none; } .cls-3, .cls-4, .cls-5, .cls-6, .cls-8, .cls-9, .cls-10, .cls-11, .cls-12 { stroke-linecap: round; stroke-linejoin: round; } .cls-3, .cls-4, .cls-5, .cls-6, .cls-9, .cls-11, .cls-12 { stroke-width: .4px; } .cls-3, .cls-7, .cls-10 { stroke: #c6c6c6; } .cls-13 { fill: #d74392; } .cls-13, .cls-14, .cls-15, .cls-16, .cls-17, .cls-18, .cls-19, .cls-20, .cls-21, .cls-22, .cls-23, .cls-24, .cls-25, .cls-26 { stroke-width: 0px; } .cls-14 { fill: #f9b2ac; } .cls-15 { fill: #7edca0; } .cls-4 { stroke: #0056d3; } .cls-16 { fill: #f4a39f; } .cls-27 { mask: url(#mask-2); } .cls-28 { isolation: isolate; } .cls-2 { opacity: 0; } .cls-5 { stroke: #e24951; } .cls-29 { mask: url(#mask-3); } .cls-17 { fill: #0044e7; } .cls-18 { fill: #ffdf44; } .cls-6 { stroke: #cd2c83; } .cls-19 { fill: #002978; } .cls-20 { fill: #feb3b3; } .cls-7 { stroke-miterlimit: 10; stroke-width: .4px; } .cls-8 { stroke: #003b65; stroke-width: .5px; } .cls-9 { stroke: #002978; } .cls-10 { stroke-width: .4px; } .cls-21 { fill: #fe4e4f; } .cls-22 { fill: #ea4e56; } .cls-23 { fill: #fed300; } .cls-24 { fill: #2a92f5; } .cls-25 { fill: #fff; } .cls-30 { mask: url(#mask-1); } .cls-31 { mask: url(#mask); } .cls-11 { stroke: #f4a39f; } .cls-12 { stroke: #d96250; } .cls-26 { fill: #e57766; } </style><mask id="mask" x="208.8" y="210.8" width="111.2" height="58.3" maskUnits="userSpaceOnUse"><g id="mask0_118_168" data-name="mask0 118 168"><path class="cls-25" d="M296.1,211.4c-8.6,2.3-15.5,8.6-22.8,13.8-7.3,5.2-16.4,9.4-24.9,6.7-5.2-1.6-9.2-5.7-13.3-9.3-4.1-3.6-8.7-7.2-14.1-7.6-5.4-.4-11.5,3.7-12.2,10,0,0,6,36.8,49.4,40,43.4,3.2,61.2-41,61.2-41-3.6-10.9-14.7-14.8-23.4-12.5Z"></path></g></mask><mask id="mask-1" x="184.5" y="388.1" width="139" height="31.2" maskUnits="userSpaceOnUse"><g id="mask1_118_168" data-name="mask1 118 168"><path class="cls-25" d="M189.7,388.1c-1.8,3-3.6,6.1-5.3,9.2,43,20.2,93.9,23,139,7.7-2.3-4.7-5-9.3-7.8-13.7-66.6,19.5-125.8-3.2-125.8-3.2Z"></path></g></mask><mask id="mask-2" x="139.4" y="366.1" width="37.5" height="41.2" maskUnits="userSpaceOnUse"><g id="mask2_118_168" data-name="mask2 118 168"><path class="cls-25" d="M139.4,399.4c3.6,2.5,7.5,4.6,11.5,6.3,1.5.6,3.1.8,4.7.5,1.6-.3,3-1,4.2-2.1,6.2-5.9,11.4-12.8,15.3-20.4.9-1.8,1.2-3.8.7-5.8-.5-1.9-1.6-3.7-3.2-4.8-3.8-2.8-7.9-5.1-12.2-7.1l-21.1,33.3Z"></path></g></mask><mask id="mask-3" x="325.1" y="376.4" width="31.3" height="39.3" maskUnits="userSpaceOnUse"><g id="mask3_118_168" data-name="mask3 118 168"><path class="cls-25" d="M337.5,376.4c-3,.9-5.9,2.2-8.5,3.8-1,.6-1.8,1.6-2.3,2.7-.5,1.1-.6,2.4-.4,3.5,2,9.8,6.2,19,12.3,27,.9,1.1,2.1,1.9,3.5,2.1,1.4.3,2.9,0,4.1-.7,3.3-2,6.3-4.6,8.8-7.5l-17.6-30.9Z"></path></g></mask></defs><g class="cls-28"><g id="_Слой_1" data-name="Слой 1"><ellipse class="cls-18" cx="355.9" cy="270.1" rx="313.9" ry="191.2"></ellipse><path class="cls-25" d="M339.9,518.9c-1.9-39.4-7.4-96.7-15.7-113.2l-139-7.7c-8.7,15.9-18.1,76.9-23.4,120.9h178.1Z"></path><path class="cls-24" d="M396.3,518.9h152.6c.6-35.9,9.9-75.3,9.3-108.6l-165.4,4.1c-1.6,32.2,5.1,69.5,3.5,104.5Z"></path><g class="cls-1"><path class="cls-19" d="M329.7,425.8l.5-.3c2.7-1.8,5.4-3.7,7.9-5.8.4.6.8,1.2,1.2,1.8.8,1.2,2.1,2,3.5,2.3,1.4.3,2.8,0,4.1-.6,1.6-.9,3.2-2,4.7-3.1,8.8,6,21,6.8,31.3,3.1,18.3,6,37.2,10.1,56.3,12.3,12.2,1.4,24.5,2,36.8,1.9,1.5,0,2.9-.5,4.1-1.2,1.2-.8,2.3-1.8,3-3.1,27.8-49.6,36.3-108.9,24.8-164.4,0-.2,0-.4-.1-.6-.4-1.4-1.2-2.7-2.3-3.8-1.1-1-2.4-1.8-3.9-2.1-1.6-.4-3.2-.3-4.7.3-24.2,8.9-50.4,15.1-76.4,14.4-3.4,0-6.8-.3-10.2-.6-2.5-.2-4.9-.5-7.4-.9h-.5c-.4-.6-.9-1.1-1.3-1.6.2,0,.4,0,.7,0,2.1-.1,4.1-.4,6.1-.7,3.5-.6,7-1.5,10.4-2.7,3.8-1.4,7.4-3.1,10.8-5.3,0,0,0,0,0,0s0,0,0,0c16.9-10.8,28-30.8,27.2-51-.7-16.3-9.2-31.9-21.8-42.2-5.4-4.5-11.6-7.8-18.3-10-.8-.3-1.6-.5-2.5-.7-.8-.2-1.6-.4-2.5-.6-8.1-1.8-16.4-2.1-24.6-3.4-9-1.5-18.3-4.5-24.4-11.3-.5-.5-1-1.1-1.4-1.7-7-9.1-7.9-21.8-12.7-32.4-5.3-11.9-15.9-21.3-28.2-25.4-1.9-.6-3.9-1.2-5.9-1.5,0-.7,0-1.5,0-2.2-.6-7-4.4-14.9-10.5-19.9-4.4-3.5-9.7-5.7-15.2-6.4-3.1-.4-6.3-.4-9.4,0-8.7,1.2-16.7,5.4-23.4,11-3.7-3.7-7.4-6.4-11.5-7.8-.2,0-.5-.2-.7-.2-.5-.1-1-.3-1.4-.4-2-.4-4.1-.5-6.1-.2-2.1.3-4.1,1.1-5.8,2.4-3.7,2.8-5.3,7.5-6.2,12.1-2.4,11.6-1.6,23.7,2.3,35-4.1,1.1-7,5.6-7.5,10.7h-.2c-2.1,0-4.1.7-5.8,1.9-.8.5-1.5,1.2-2.2,1.9-.6.6-1,1.2-1.5,1.9-.5.8-1,1.7-1.3,2.5,0,0,0,0,0,0h0c-.5,1.2-.9,2.4-1.1,3.7-.9,4-.7,8.2.9,12h0c.1.3.3.7.5,1,.2.3.3.6.5.9,2,3.2,5.3,5.6,8.9,6.1-3.1,2.7-5.9,5.8-8.3,9.1l-.6.9c-2.2,3.3-4.1,6.8-5.5,10.4-2.2,5.4-3.4,11.2-3.6,17,0,2.7,0,5.5.4,8.2,0,.8.2,1.6.4,2.5.4,2.1.9,4.1,1.5,6.1-2.5,1-5,2.2-7.3,3.6-1.9,1.1-3.6,2.3-5.4,3.6-8.8,6.6-15.6,15.3-21.5,24.6-1.5,2.4-2.9,4.7-4.3,7.1-4.2,1.8-8.3,3.7-12.3,5.7-2,1-4,2-6,3.1-9.5,5.1-18.6,10.8-27.2,17.2-13.9,10.3-27,22.7-33.6,38.7-1.2,3-2.2,6-2.9,9.1-.9,3.9-1.5,7.8-1.6,11.8-.6,12,2,24.3,7.1,35.3,1.3,2.8,2.7,5.5,4.3,8.1,6.1,10.1,14.6,19.1,25.2,24.3l.8.4c.7.3,1.4.6,2.1.9,0,.3,0,.6,0,.9-.6,14.8-.3,29.6,1.1,44.3.2,2.4.4,4.7.7,7,.1,1.2.7,2.4,1.5,3.2.9.9,2,1.5,3.2,1.6,12.1,1.6,24.3,2.5,36.5,2.6h1.2c-.4,1.6-.7,3.2-1.1,4.8-.2,1.2-.5,2.4-.7,3.6,0,0,168.6-41,168.8-40.9Z"></path></g><path class="cls-15" d="M211.2,227c-13.2-9.4-21.4-25.4-21.5-41.6,0-16.2,8.1-32.2,21.2-41.8,0,0-2.2-21-3.2-21.2-3.1-7.1,0-16.3,6-18.1-4.3-11.1-5.6-23.1-3.6-34.9.8-4.5,2.2-9.3,5.8-12.3,3.6-2.9,8.8-3.5,13.3-2.3,4.5,1.2,8.5,3.8,12.6,7.6,6.5-5.9,14.4-10.4,23-11.9,8.6-1.5,17.9.2,24.9,5.5,7,5.3,11.2,14.3,11.4,21.7,14.9,2.2,28.5,12.1,35.1,25.7,5.4,11.1,6.7,24.7,15.3,33.5,6.4,6.5,15.7,9.2,24.8,10.4,9.1,1.1,18.3,1,27.2,3,23.7,5.3,42.6,27.1,44.5,51.3,1.9,24.2-13.4,48.7-35.9,57.7-20.4,8.1-43.4,3.9-64.4-2.3l-136.4-30.1Z"></path><g class="cls-1"><path class="cls-19" d="M323.3,222c-6.2-5.5-14.6-8.2-22.9-8.8-8.3-.7-16.7.5-24.9,1.6,0,0-1.8-16.5-1.4-15.6,10.5-3.2,19.5-10.8,25-20.4,6.2,2.5,13.2,3.2,19.5,1.2,6.3-2,11.9-7,13.8-13.4,1.9-6.4-.4-14-7.5-17.3-39.7-.6-79-8.1-116-22.4,1,6.2,2.1,16.8,2.1,16.8-4.9,3.6-9.2,8.1-12.5,13.2,4,16.6,15.9,31.3,32,38.7-13-2.5-26.4-1.2-38.6,3.9,3.2,11,10.1,20.9,19.4,27.6l136.4,30c17.6,5.2,36.6,9,54.3,5.4-19.4-23.2-48.3-38.2-78.7-40.4Z"></path></g><path class="cls-24" d="M254.8,205.5c-11-6.9-26.3-9.9-39.2-9.1l7.3,34.9,30.7-6.6,1.2-19.2Z"></path><path class="cls-14" d="M266.2,184.4c.8,12,1.6,23.9,2.3,35.9,0,0-22.8,2.3-23,1.2l-.2-35.5,20.8-1.5Z"></path><g class="cls-1"><path class="cls-19" d="M267.1,197.3l-.8-12.9-20.8,1.6v12.4c7.3,1.3,14.6.9,21.7-1.1Z"></path></g><path class="cls-14" d="M299.7,142.7c5-5.5,13.6-7.3,20.4-4.3s11.1,10.7,10.3,18.1c-.8,7.4-6.7,13.9-14,15.4-7.3,1.5-15.3-2.1-19-8.6l2.3-20.6Z"></path><path class="cls-11" d="M308.8,146.7c2.5,0,4.9.5,7.1,1.8s3.9,3,5.1,5.2"></path><path class="cls-11" d="M310.5,159.3c2.9-2.8,5-6.4,6-10.4"></path><path class="cls-14" d="M214,119.9c-1.2-2.8-4.3-4.6-7.4-4.6s-6,1.7-8,4c-2,2.4-3.1,5.4-3.7,8.4-.8,4.4-.3,9.1,1.9,12.9,2.2,3.8,6.3,6.7,10.8,6.8l6.5-27.5Z"></path><path class="cls-20" d="M301.2,138.8c-.1,9-1,18.1-4.1,26.6-3,8.5-8.2,16.4-15.7,21.5-7,4.7-15.6,6.8-24,6.7-18.7-.1-37-11-45.5-27.6-6.9-13.4-7.2-29.7-1.9-43.8,5.4-14.1,15.8-25.8,29.2-32.7-1.6,7.7-.4,16.1,3.9,22.7,4.3,6.6,12,11.1,19.9,10.9,7.9-.2,15.6-5.3,18.5-11.5-.7,5.9.8,11.9,4.2,16.7,3.4,4.8,8.6,8.3,15.6,10.4Z"></path><path class="cls-16" d="M229.8,174.5c.9-2.5,1-5.3.3-7.9-.7-2.6-2.3-4.9-4.4-6.6-2.1-1.7-4.7-2.6-7.4-2.7-2.7-.1-5.4.6-7.6,2.2-.4.3-.8.6-1.2,1,.7,1.9,1.5,3.8,2.4,5.5,3,5.8,7.2,10.9,12.2,15.1,2.6-1.5,4.6-3.8,5.7-6.6Z"></path><path class="cls-16" d="M295.8,168.8c-.8-2.1-2.1-3.9-3.8-5.3-2.1-1.7-4.7-2.6-7.4-2.8-2.7-.1-5.4.6-7.6,2.1s-4,3.7-4.9,6.2c-.9,2.5-1,5.3-.3,7.9,1.3,4.7,5.7,8.5,10.6,9.2,6-4.4,10.5-10.5,13.5-17.4Z"></path><path class="cls-8" d="M269,136c2.2,2.9,5.4,4.8,9,5.4,3.6.5,7.2-.2,10.3-2.1,2.3,2.1,4.3,4.5,6,7.1"></path><path class="cls-8" d="M285.9,147.6c-.6-2.2-1.4-4.4-2.4-6.4"></path><path class="cls-8" d="M279,147.9c-.2-2.2-.4-4.3-.7-6.4"></path><path class="cls-8" d="M231.4,128.6c-3.1,1.3-6.4,1.3-9,.1-1.3-.6-2.5-1.6-3.4-2.7-.9-1.1-1.6-2.5-2-3.9-2.8.6-5.5,1.6-8.1,2.9"></path><path class="cls-8" d="M213.6,129.9c1.7-1.5,3.5-2.8,5.4-4"></path><path class="cls-8" d="M217.9,133.4c1.4-1.6,2.8-3.2,4.2-4.9"></path><path class="cls-11" d="M236.8,145.2c-1.2-2.8-.4-6.2,1.4-8.8,1.7-2.6,4.3-4.4,6.7-6.3"></path><path class="cls-8" d="M229.8,151.4c10.9,2.4,22.2,2,32.9-1.1"></path><path class="cls-10" d="M229.4,434.3c4.7,5.1,10.2,9.1,16.4,11.9-.5,6.8-.6,13.6-.4,20.4"></path><path class="cls-17" d="M331.5,241.8c24.7,16,53.6,24.4,83,24.2,26-.2,52-7.4,75.8-17.2,1.1-.4,2.3-.6,3.5-.6,1.2,0,2.4.4,3.4.9,1.1.5,2,1.3,2.7,2.3.7.9,1.3,2,1.5,3.2,13.5,55,7.1,114.6-18.8,165.2-.7,1.3-1.6,2.4-2.9,3.2-1.2.8-2.6,1.3-4.1,1.4-62.8,3.2-126.6-14.9-178.3-50.8l34-131.7Z"></path><path class="cls-24" d="M430.5,321.2c-2.3-21-13.6-40.3-26.9-55.5-25.7-1.7-50.5-9.9-72.1-23.9l-34,131.7c51.7,35.9,115.4,54,178.3,50.8,1.5,0,2.9-.6,4.1-1.4,1.2-.8,2.2-1.9,2.9-3.2,4.6-9,8.6-18.2,12-27.7-22.2,8-46.1,10.6-69.5,7.3l5.3-78.1Z"></path><path class="cls-26" d="M323.9,382.4c-2.5-.1-4.9-.2-7.4.2-2.5.4-4.9,1.3-6.6,3l2.3,7.7,11.8-10.9Z"></path><path class="cls-14" d="M298.7,221.4c-26.9-6.7-55.8-5.4-80.8,5.5,8,12.9,23.2,20.9,38.3,20.2,15.1-.7,29.6-10.1,42.5-25.8Z"></path><path class="cls-21" d="M208.8,224.9c-9.1,1.8-18.1,4.1-26.9,7l-4.6,52c1.7,34.4,6,68.6,12.4,104.1-1.8,3-3.6,6.1-5.3,9.2,43,20.2,93.9,23,139,7.7-2.3-4.7-5-9.3-7.8-13.7,11.7-37.3,18.7-75.9,20.7-114.9l2.2-48.1c-6.2-1.9-12.5-3.4-19-4.4-50.5,36.4-110.7,1-110.7,1Z"></path><g class="cls-2"><path class="cls-19" d="M231.3,411.9c-10-63.6-7.7-143.8-6-179.5-10.2-3.8-16.6-7.5-16.6-7.5-9.1,1.8-18.1,4.1-26.9,7l-4.6,52c1.7,34.4,6,68.6,12.4,104.1-1.8,3-3.6,6.1-5.3,9.2,14.9,7,30.6,11.9,46.8,14.7Z"></path></g><path class="cls-22" d="M296.1,211.4c-8.6,2.3-15.5,8.6-22.8,13.8-7.3,5.2-16.4,9.4-24.9,6.7-5.2-1.6-9.2-5.7-13.3-9.3-4.1-3.6-8.7-7.2-14.1-7.6-5.4-.4-11.5,3.7-12.2,10,0,0,6,36.8,49.4,40,43.4,3.2,61.2-41,61.2-41-3.6-10.9-14.7-14.8-23.4-12.5Z"></path><g class="cls-31"><g><path class="cls-5" d="M212.4,238.2c3.9-9.2,10.6-17,19-22.5"></path><path class="cls-5" d="M241.6,224c-9.4,8.8-16.3,19.9-20.2,32.2"></path><path class="cls-5" d="M249.1,228.3c-3.3,12.4-5.4,25.1-6.3,37.9"></path><path class="cls-5" d="M260.5,229.5c4.5,12.6,6.1,26.1,4.6,39.4"></path><path class="cls-5" d="M270.8,223.3c7.4,11,11.9,23.7,13.2,36.9"></path><path class="cls-5" d="M278.3,218.6c6.5,4.2,12.1,9.7,16.2,16.2,4.2,6.5,6.9,13.8,8,21.5"></path><path class="cls-5" d="M286.9,212.3c15.1,3.7,28,15.6,32.9,30.3"></path></g></g><g class="cls-2"><path class="cls-19" d="M221,214.9c-5.4-.4-11.5,3.7-12.2,10,0,0,2.5,15.2,15.8,26.9.6-17.5,1.4-30.3,1.7-35.5-1.7-.8-3.4-1.2-5.3-1.4Z"></path></g><path class="cls-22" d="M189.7,388.1c-1.8,3-3.6,6.1-5.3,9.2,43,20.2,93.9,23,139,7.7-2.3-4.7-5-9.3-7.8-13.7-66.6,19.5-125.8-3.2-125.8-3.2Z"></path><g class="cls-30"><g><path class="cls-5" d="M257,398.3c-.7,6.1-1,12.2-.9,18.3"></path><path class="cls-5" d="M245.4,396.2c-1,7.4-1.4,14.9-1.1,22.4"></path><path class="cls-5" d="M233.9,395.5c-.9,7-1.3,14.1-1.3,21.2"></path><path class="cls-5" d="M222,393.4c-1.5,7-2.5,14.1-2.9,21.2"></path><path class="cls-5" d="M270.9,395c-1.7,7.6-2.1,15.5-1.4,23.2"></path><path class="cls-5" d="M281.9,396.4c-.8,7.6-.6,15.2.5,22.7"></path><path class="cls-5" d="M298.3,394.9c-.5,7.3-.1,14.7,1,21.9"></path><path class="cls-5" d="M308.8,391.1l3.4,21.4"></path></g></g><g class="cls-2"><path class="cls-19" d="M229.2,397.2c-24-3.2-39.5-9.1-39.5-9.1-1.8,3-3.6,6.1-5.3,9.2,14.9,7,30.6,11.9,46.8,14.7-.8-4.8-1.4-9.7-2.1-14.7Z"></path></g><path class="cls-26" d="M195.2,380.5c-3.1-1.5-6.7-1.8-10-1-2.1.5-4,1.5-6.1,2.1l12.7,10.6,3.5-11.6Z"></path><path class="cls-26" d="M158.2,402.8c8,8.6,18,15.2,29,19.2.8.4,1.7.6,2.6.6.9,0,1.8-.5,2.1-1.4.4-1.1-.4-2.3-1.2-3.2-2.9-3.1-6.2-5.8-9.8-7.9,6.5,3.2,13.3,6,20.4,7.4,1.6.3,3.6.3,4.2-1.2.5-1.3-.7-2.6-1.9-3.5-5.8-4.4-12.2-7.7-19.1-9.9,7,3,14.3,5.4,21.7,6.5,1.7.3,3.8.2,4.6-1.3.5-.9.2-2.1-.5-2.9-.7-.8-1.5-1.4-2.4-1.8-6.2-3.4-13-5.7-19.7-7.9,6.9,1.5,13.9,2.7,20.8,2.9,1.5,0,3.2-.1,3.9-1.4.5-1,.1-2.3-.6-3.1-.8-.8-1.9-1.3-2.9-1.7-6.9-2.7-14.1-4.7-21.4-6.1l-8.9-4.5c-2.1.6-4.4.7-6.3-.5l-14.6,21.7Z"></path><path class="cls-12" d="M168.6,412c5.7,4.2,12,7.6,18.6,10.1.8.4,1.7.6,2.6.6.9,0,1.8-.5,2.1-1.4.4-1.1-.4-2.3-1.2-3.2-2.9-3.1-6.2-5.8-9.8-7.9,6.5,3.2,13.3,6,20.4,7.4,1.6.3,3.6.3,4.2-1.2.5-1.3-.7-2.6-1.9-3.5-5.8-4.4-12.2-7.7-19.1-9.9,7,3,14.3,5.4,21.7,6.5,1.7.3,3.8.2,4.6-1.3.5-.9.2-2.1-.5-2.9-.7-.8-1.5-1.4-2.4-1.8-6.2-3.4-13-5.7-19.7-7.9,6.9,1.5,13.9,2.7,20.8,2.9,1.5,0,3.2-.1,3.9-1.4.5-1,.1-2.3-.6-3.1-.8-.8-1.9-1.3-2.9-1.7-6.9-2.7-14.1-4.7-21.4-6.1"></path><path class="cls-13" d="M139.4,399.4c3.6,2.5,7.5,4.6,11.5,6.3,1.5.6,3.1.8,4.7.5,1.6-.3,3-1,4.2-2.1,6.2-5.9,11.4-12.8,15.3-20.4.9-1.8,1.2-3.8.7-5.8-.5-1.9-1.6-3.7-3.2-4.8-3.8-2.8-7.9-5.1-12.2-7.1l-21.1,33.3Z"></path><g class="cls-27"><g><path class="cls-6" d="M156.2,369.4c6.4,5.6,13.2,10.7,20.5,15.1"></path><path class="cls-6" d="M151.3,375.3c6.4,6.4,13.8,11.8,21.8,16.1"></path><path class="cls-6" d="M145.7,382.9c7.4,6,15.5,11.1,24,15.4"></path><path class="cls-6" d="M141.1,391.5c7.9,6.3,16.5,11.5,25.7,15.6"></path></g></g><path class="cls-21" d="M181.9,232c-25.6,8.4-49.6,21.3-70.7,38.1-13.5,10.8-26.2,23.7-32.2,39.9-7.8,21-3.1,45.4,9.2,64.1,6.7,10.1,15.7,19,26.9,23.8,11.2,4.7,24.6,4.8,35.1-1.4,10.4-6.2,16.9-19.3,13.8-31-2.5-9.5-10.2-16.7-14.1-25.6-2.1-4.9-3-10.1-2.7-15.4.3-5.3,1.8-10.4,4.3-15.1,5.2-9.2,21-17.2,31.5-18.5l-1-58.8Z"></path><path class="cls-22" d="M75.3,327.6c-.9,13.6,2.5,27.6,8.9,39.8,6.4-3.7,12.4-10.1,9-21.1-4-13.1-12.3-17.4-17.9-18.7Z"></path><g class="cls-2"><path class="cls-19" d="M182.9,290.7l-1-58.8c-11,3.6-21.7,8-32,13.3-21,39.8-35.3,83.7-41.2,128.7-18.5-18.6-25.4-46.6-28.4-67.4-.5,1.1-1,2.3-1.4,3.4-7.8,21-3.1,45.4,9.2,64.1,6.7,10.1,15.7,19,26.9,23.8,11.2,4.7,24.6,4.8,35.1-1.4,10.4-6.2,16.9-19.3,13.8-31-2.5-9.5-10.2-16.7-14.1-25.6-2.1-4.9-3-10.1-2.7-15.4.3-5.3,1.8-10.4,4.3-15.1,5.2-9.2,21-17.2,31.5-18.5Z"></path></g><path class="cls-14" d="M323.9,382.4l5.3.2,9.8,27.6c-7.1,6.6-15.2,12-24,16.1-1.1.5-2.5.9-3.3,0-.8-.9-.1-2.3.6-3.2,2.2-3,4.8-5.6,6.8-7.8-4.5,3.6-9.7,6.4-15.2,8.2-1.7.6-4,.9-5-.6-.7-.9-.5-2.2,0-3.2.6-.9,1.4-1.8,2.3-2.4,4.7-3.7,9.6-7,14.7-10.1-5.4,3.6-11,7.2-17.2,8.9-1,.3-2.1.4-3.2.3-1.1-.2-2.1-.9-2.4-1.9-.5-1.7,1-3.2,2.4-4.3,5.5-4.1,11.5-7.6,17.5-11.1-6.6,3.4-13.5,6.8-21,6.7-1.5,0-3.4-.4-3.9-1.9-.5-1.7,1.2-3.2,2.7-4.1,8.2-4.8,16.9-9,25.8-12.3l7.2-5Z"></path><path class="cls-11" d="M329.2,418.1c-4.5,3.1-9.3,5.9-14.2,8.2-1.1.5-2.5.9-3.3,0-.8-.9-.1-2.3.6-3.2,2.2-3,4.8-5.6,6.8-7.8-4.5,3.6-9.7,6.4-15.2,8.2-1.7.6-4,.9-5-.6-.7-.9-.5-2.2,0-3.2.6-.9,1.4-1.8,2.3-2.4,4.7-3.7,9.6-7,14.7-10.1-5.4,3.6-11,7.2-17.2,8.9-1,.3-2.1.4-3.2.3-1.1-.2-2.1-.9-2.4-1.9-.5-1.7,1-3.2,2.4-4.3,5.5-4.1,11.5-7.6,17.5-11.1-6.6,3.4-13.5,6.8-21,6.7-1.5,0-3.4-.4-3.9-1.9-.5-1.7,1.2-3.2,2.7-4.1,8.2-4.8,16.9-9,25.8-12.3"></path><path class="cls-22" d="M337.5,376.4c-3,.9-5.9,2.2-8.5,3.8-1,.6-1.8,1.6-2.3,2.7-.5,1.1-.6,2.4-.4,3.5,2,9.8,6.2,19,12.3,27,.9,1.1,2.1,1.9,3.5,2.1,1.4.3,2.9,0,4.1-.7,3.3-2,6.3-4.6,8.8-7.5l-17.6-30.9Z"></path><g class="cls-29"><g><path class="cls-5" d="M325.3,389.2l18.4-8"></path><path class="cls-5" d="M327.7,397.1c6.8-2.3,13.5-5.1,19.9-8.4"></path><path class="cls-5" d="M331.5,404.6c7.1-2.9,14-6.1,20.7-9.8"></path><path class="cls-5" d="M335.8,411.5c7.1-3.4,13.9-7.2,20.4-11.6"></path></g></g><path class="cls-21" d="M322.3,281.5c10.6,6,21.3,12,30.4,20.2,4.2,3.8,8.2,8.2,10.2,13.6,2.5,6.8,1.6,14.6-1.2,21.3-2.9,6.7-7.6,12.4-12.6,17.7-4.7,4.9-10,9.7-12.5,16.1-2.7,7-1.6,15.1,1.4,22.1,3,6.9,7.8,12.9,12.4,18.9,9.2,6,21.8,6.4,32.2,2.1,10.4-4.2,18.6-12.5,25-21.7,21.3-31.1,21.3-74.4,2.8-107.2-15.3-27.2-42-46.9-71.9-56.1l-16.1,53.3Z"></path><path class="cls-13" d="M419.3,367c4-13.3,5.4-27.2,4-41-7.9,5.5-28,22.7-4,41Z"></path><g class="cls-2"><path class="cls-19" d="M382.5,413.4c10.4-4.2,18.6-12.5,25-21.7,16.2-23.6,20.1-54.2,12.9-81.9-4.3,19.3-10.3,38.2-19.6,55.6-10.4,19.6-25.2,37.2-43.8,49.1,8.1,2.7,17.5,2.2,25.5-1.1Z"></path></g><path class="cls-6" d="M322.3,281.5c10.6,6,21.3,12,30.4,20.2,4.2,3.8,8.2,8.2,10.2,13.6,2.5,6.8,1.6,14.6-1.2,21.3-2.9,6.7-7.6,12.4-12.6,17.7-4.7,4.9-10,9.7-12.5,16.1-.5,1.2-.8,2.5-1.1,3.8"></path><path class="cls-24" d="M227.4,207.7c-12.4,77.8-11.6,157.1,2.5,234.6.3,1.4,0,2.9-.8,4.1-.8,1.2-2,2-3.4,2.4-33.2,7.8-67.6,9.9-99.9,6.8-1.2-.1-2.4-.7-3.3-1.5-.9-.8-1.5-2-1.7-3.2-10.3-69.6,1.4-142.2,33.2-205,6.8-13.4,14.6-26.6,26.3-36,10-8.1,22.6-12.5,35.4-13.3l11.7,11.3Z"></path><path class="cls-23" d="M202.7,348l-4.6-2.7,5.3-.7,1.2-5.2,2.3,4.8,5.4-.5-3.9,3.7,2.1,4.9-4.7-2.5-4,3.5.9-5.3ZM188.9,337.7l4-3.5,4.7,2.5-2.1-4.9,3.9-3.7-5.3.5-2.3-4.8-1.2,5.2-5.3.7,4.6,2.7-1,5.3ZM170,330.6l4-3.5,4.7,2.5-2.1-5,3.9-3.7-5.4.5-2.3-4.8-1.2,5.2-5.3.7,4.6,2.7-1,5.3ZM150,333.9l4-3.5,4.7,2.5-2.1-4.9,3.9-3.7-5.4.5-2.3-4.8-1.2,5.2-5.3.7,4.6,2.7-1,5.3ZM134.4,346.8l4-3.5,4.7,2.5-2.1-5,3.9-3.7-5.3.5-2.3-4.9-1.2,5.2-5.3.7,4.6,2.7-1,5.3ZM127.4,365.7l4-3.5,4.7,2.5-2.2-4.9,3.9-3.7-5.3.5-2.3-4.8-1.2,5.2-5.3.7,4.6,2.7-.9,5.3ZM130.7,385.7l4-3.5,4.7,2.5-2.1-4.9,3.9-3.7-5.3.5-2.3-4.8-1.2,5.2-5.3.7,4.6,2.7-.9,5.3ZM143.6,401.3l4-3.5,4.7,2.5-2.1-5,3.9-3.7-5.4.5-2.3-4.8-1.2,5.2-5.3.7,4.6,2.7-.9,5.3ZM162.5,408.4l4-3.5,4.7,2.5-2.1-4.9,3.9-3.7-5.4.5-2.3-4.8-1.2,5.2-5.3.7,4.6,2.7-.9,5.3ZM182.5,405l4-3.5,4.7,2.5-2.1-5,3.9-3.7-5.4.5-2.3-4.8-1.2,5.2-5.3.7,4.6,2.7-.9,5.3ZM198,392.2l4-3.5,4.7,2.5-2.1-4.9,3.9-3.7-5.3.5-2.3-4.8-1.2,5.2-5.3.7,4.6,2.7-1,5.3ZM205.1,373.2l4-3.5,4.7,2.5-2.1-4.9,3.9-3.7-5.4.5-2.3-4.8-1.2,5.2-5.3.7,4.6,2.7-.9,5.3Z"></path><g class="cls-1"><path class="cls-19" d="M229.9,442.3c-11-60.8-14-122.7-8.7-184.3-9.5,22.6-33.4,87.1-39.3,177.6,0,0-22.5,5.2-62,8.4.3,2.3.6,4.6.9,6.8.2,1.2.8,2.3,1.7,3.2.9.8,2,1.4,3.3,1.5,32.3,3.2,66.7,1,99.9-6.8,1.4-.3,2.6-1.2,3.4-2.4.8-1.2,1.1-2.7.8-4.1Z"></path></g><path class="cls-4" d="M227.4,207.7c-11.3,66.8-11.4,154.6,2.5,234.6.3,1.4,0,2.9-.8,4.1-.8,1.2-2,2-3.4,2.4-33.2,7.8-67.6,9.9-99.9,6.8"></path><path class="cls-24" d="M356,16.6c2,6.8,3.6,13.8,4.7,20.9l-10.4,2.3-.8-21.4,6.5-1.7Z"></path><path class="cls-24" d="M495.7,183.7c3.8-6.1,7.9-11.9,12.5-17.4l8.6,6.3-15.5,14.8-5.6-3.7Z"></path><path class="cls-24" d="M552,456.3c6.3-3.4,12.8-6.4,19.5-8.9l4.4,9.7-20.8,5.1-3-6Z"></path><path class="cls-24" d="M9.2,376.2l12.7,18.3s-8,6-8.2,6.5c-3.1-7.6-7.7-14.4-13.7-20l9.1-4.9Z"></path><path class="cls-24" d="M534.3,225.1l-3.6,17.4,7.5,1.2,4.2-13.5-8.1-5.1Z"></path><path class="cls-24" d="M401,414.7l3.2-22.8,10.6,1.3-3.3,19.9-10.5,1.5Z"></path><path class="cls-24" d="M39.4,306.3c-.8-.2-1.6-.3-2.4,0-.8.2-1.5.7-2.1,1.3-.5.6-.9,1.4-1,2.2-.1.8,0,1.7.4,2.4.4.7.9,1.4,1.6,1.8.7.4,1.5.6,2.3.6.8,0,1.6-.3,2.3-.8.7-.5,1.2-1.1,1.5-1.9.2-.5.3-1.1.3-1.7,0-.6-.2-1.1-.4-1.7-.2-.5-.6-1-1-1.4s-.9-.7-1.5-.9Z"></path><path class="cls-24" d="M526.9,364.3c-.8-.3-1.6-.3-2.4,0-.8.2-1.5.7-2.1,1.3-.5.6-.9,1.4-1,2.2-.1.8,0,1.7.4,2.4.4.7.9,1.4,1.6,1.8.7.4,1.5.6,2.3.6s1.6-.3,2.3-.8c.7-.5,1.2-1.1,1.5-1.9.2-.5.3-1.1.3-1.7,0-.6-.2-1.1-.4-1.7-.2-.5-.6-1-1-1.4-.4-.4-.9-.7-1.5-.9Z"></path><path class="cls-24" d="M526.4,118.9c-.5-.2-1-.2-1.5,0-.5.1-.9.4-1.3.8-.3.4-.5.9-.6,1.4,0,.5,0,1,.2,1.5.2.5.6.8,1,1.1s.9.4,1.4.4c.5,0,1-.2,1.4-.5.4-.3.7-.7.9-1.2.1-.3.2-.7.2-1,0-.4-.1-.7-.3-1s-.4-.6-.6-.8c-.3-.2-.6-.4-.9-.5Z"></path><path class="cls-24" d="M27.2,450c-.5-.2-1-.2-1.5,0-.5.1-.9.4-1.3.8-.3.4-.5.9-.6,1.4,0,.5,0,1,.2,1.5.2.5.6.8,1,1.1.4.3.9.4,1.5.4.5,0,1-.2,1.4-.5.4-.3.7-.7.9-1.2.1-.3.2-.7.2-1,0-.4-.1-.7-.3-1-.2-.3-.4-.6-.6-.8-.3-.2-.6-.4-.9-.5Z"></path><path class="cls-24" d="M46.3,234.5c-.5-.2-1-.2-1.5,0-.5.1-.9.4-1.3.8-.3.4-.5.9-.6,1.4,0,.5,0,1,.2,1.5.2.5.6.8,1,1.1.4.3.9.4,1.5.4.5,0,1-.2,1.4-.5.4-.3.7-.7.9-1.2.1-.3.2-.7.2-1,0-.4-.1-.7-.3-1-.2-.3-.4-.6-.6-.8-.3-.2-.6-.4-.9-.5Z"></path><path class="cls-24" d="M448.9,407.3c-.5-.2-1-.2-1.5,0-.5.1-.9.4-1.3.8-.3.4-.5.9-.6,1.4,0,.5,0,1,.2,1.5.2.5.6.8,1,1.1.4.3.9.4,1.5.4.5,0,1-.2,1.4-.5.4-.3.7-.7.9-1.2.1-.3.2-.7.2-1,0-.4-.1-.7-.3-1-.2-.3-.4-.6-.6-.8-.3-.2-.6-.4-.9-.5Z"></path><path class="cls-24" d="M167.6,68.1c-.5-.2-1-.2-1.5,0-.5.1-.9.4-1.3.8s-.5.9-.6,1.4c0,.5,0,1,.2,1.5.2.5.6.8,1,1.1.4.3.9.4,1.4.4.5,0,1-.2,1.4-.5.4-.3.7-.7.9-1.2.1-.3.2-.7.2-1,0-.4-.1-.7-.3-1-.2-.3-.4-.6-.6-.8-.3-.2-.6-.4-.9-.5Z"></path><path class="cls-24" d="M66.8,260.7c2.1,6.8,3.6,13.8,4.7,20.9l-10.4,2.3-.8-21.4,6.5-1.7Z"></path><path class="cls-24" d="M166,41.2l-18.3-13.9,6.4-8.6,15.8,12.6-3.9,9.9Z"></path><path class="cls-24" d="M5.8,205.3l3.2-22.8,10.6,1.3-3.3,19.9-10.5,1.5Z"></path><path class="cls-24" d="M504.7,499.7l-8.8,1.1-1.3-17.9-.3-3.6,9.8,3.4h0s.5,16.9.5,16.9Z"></path><path class="cls-24" d="M147.2,174.4c-.5-.2-1-.2-1.5,0-.5.1-.9.4-1.3.8-.3.4-.5.9-.6,1.4,0,.5,0,1,.2,1.5.2.5.6.8,1,1.1.4.3.9.4,1.5.4.5,0,1-.2,1.4-.5.4-.3.7-.7.9-1.2.1-.3.2-.7.2-1,0-.4-.1-.7-.3-1-.2-.3-.4-.6-.6-.8-.3-.2-.6-.4-.9-.5Z"></path><path class="cls-24" d="M686.3,317.1c2.1,6.8,3.6,13.8,4.7,20.9l-10.4,2.3-.8-21.4,6.5-1.7Z"></path><path class="cls-24" d="M561,97.3c3.8-6.1,7.9-11.9,12.5-17.4l8.6,6.3-15.5,14.8-5.6-3.7Z"></path><path class="cls-24" d="M632.5,411.5c6.3-3.4,12.8-6.4,19.5-8.9l4.4,9.7-20.8,5.1-3-6Z"></path><path class="cls-24" d="M671.3,48.1c6.7,2.5,13.2,5.4,19.5,8.8l-4.4,9.7-17.6-12.2,2.5-6.2Z"></path><path class="cls-24" d="M673.4,270.3l-18.7-12.2s5.1-8.5,5.1-9.1c5.7,5.9,12.6,10.4,20.2,13.4l-6.6,7.9Z"></path><path class="cls-24" d="M554.3,140.6c-.8-.3-1.6-.3-2.4,0-.8.2-1.5.7-2.1,1.3-.5.6-.9,1.4-1,2.2-.1.8,0,1.7.4,2.4.4.7.9,1.4,1.6,1.8.7.4,1.5.6,2.4.6.8,0,1.6-.3,2.3-.8.7-.5,1.2-1.1,1.5-1.9.2-.5.3-1.1.3-1.7,0-.6-.2-1.1-.4-1.7-.2-.5-.6-1-1-1.4-.4-.4-.9-.7-1.5-.9Z"></path><path class="cls-24" d="M675.2,457.5c-.5-.2-1-.2-1.5,0-.5.1-.9.4-1.3.8s-.5.9-.6,1.4c0,.5,0,1,.2,1.5s.6.8,1,1.1c.4.3.9.4,1.5.4.5,0,1-.2,1.4-.5.4-.3.7-.7.9-1.2.1-.3.2-.7.2-1,0-.4-.1-.7-.3-1-.2-.3-.4-.6-.6-.8-.3-.2-.6-.4-.9-.5Z"></path><path class="cls-24" d="M415.9,159.2c-.5-.2-1-.2-1.5,0-.5.1-.9.4-1.3.8-.3.4-.5.9-.6,1.4,0,.5,0,1,.2,1.5.2.5.6.8,1,1.1.4.3.9.4,1.5.4.5,0,1-.2,1.4-.5.4-.3.7-.7.9-1.2.1-.3.2-.7.2-1,0-.4-.1-.7-.3-1-.2-.3-.4-.6-.6-.8-.3-.2-.6-.4-.9-.5Z"></path><path class="cls-24" d="M680.7,208.3c-.5-.2-1-.2-1.5,0-.5.1-.9.4-1.3.8-.3.4-.5.9-.6,1.4,0,.5,0,1,.2,1.5.2.5.6.8,1,1.1.4.3.9.4,1.5.4s1-.2,1.4-.5c.4-.3.7-.7.9-1.2.1-.3.2-.7.2-1,0-.4-.1-.7-.3-1-.2-.3-.4-.6-.6-.8-.3-.2-.6-.4-.9-.5Z"></path><path class="cls-24" d="M613.9,23.7c-.5-.2-1-.2-1.5,0-.5.1-.9.4-1.3.8-.3.4-.5.9-.6,1.4,0,.5,0,1,.2,1.5.2.5.6.8,1,1.1.4.3.9.4,1.5.4.5,0,1-.2,1.4-.5.4-.3.7-.7.9-1.2.1-.3.2-.7.2-1,0-.4-.1-.7-.3-1-.2-.3-.4-.6-.6-.8-.3-.2-.6-.4-.9-.5Z"></path><path class="cls-24" d="M272.3,30.4c-.5-.2-1-.2-1.5,0-.5.1-.9.4-1.3.8-.3.4-.5.9-.6,1.4,0,.5,0,1,.2,1.5.2.5.6.8,1,1.1.4.3.9.4,1.4.4.5,0,1-.2,1.4-.5.4-.3.7-.7.9-1.2.1-.3.2-.7.2-1s-.1-.7-.3-1c-.2-.3-.4-.6-.6-.8-.3-.2-.6-.4-.9-.5Z"></path><path class="cls-24" d="M380.2,47c-.5-.2-1-.2-1.5,0-.5.1-.9.4-1.3.8-.3.4-.5.9-.6,1.4,0,.5,0,1,.2,1.5.2.5.6.8,1,1.1.4.3.9.4,1.5.4.5,0,1-.2,1.4-.5.4-.3.7-.7.9-1.2.1-.3.2-.7.2-1,0-.4-.1-.7-.3-1-.2-.3-.4-.6-.6-.8-.3-.2-.6-.4-.9-.5Z"></path><path class="cls-24" d="M398.1,5.6l-3.8,9.9-18.3-13.9"></path><path class="cls-24" d="M576.3,7.7l.5,16.9-8.8,1.1-1.6-21.5"></path><path class="cls-20" d="M373,359.1c-3.2-2.4-6-5.2-8.2-8.5-7.7-11.2-8.5-26.7-2.1-38.7l35.2,18.8-24.9,28.4Z"></path><g class="cls-1"><path class="cls-19" d="M362.4,346.6c.7,1.4,1.5,2.8,2.4,4.1,2.3,3.3,5,6.1,8.2,8.5l10-11.4c-6.9.4-13.8,0-20.6-1.2Z"></path></g><path class="cls-25" d="M401.7,331.8c-20.3-5.2-39.9-13.3-58.4-22.7,13.6-25.2,30.3-49.3,53-66.6,7.6-5.8,15.9-10.7,24.7-14.5,0,0-5.4,47.4-11.5,71.3-6.2,23.9-7.9,32.6-7.9,32.6Z"></path><path class="cls-25" d="M380.1,256.9c-4.1,4.2-7.9,8.6-11.6,13.2,11.8,12.1,25.8,22,41.1,29.1,1.1-4.1,2.1-8.9,3.1-14.1-12.3-7.7-23.3-17.2-32.6-28.2Z"></path><path class="cls-20" d="M652.9,92.6c2.5,5.8,2.8,12.6.1,19.7,4.9,22.7,3.4,46.2-4.4,68.1-7.8,21.7-20.2,45.3-38.2,59.6l-21.2-44c1.1-.9,2.2-1.7,3.3-2.6,22.6-19.3,32.1-50.6,31-80.4,0,0-3-15.2,6.7-24.3,0,0,8.9-1.5,13.8-.9,4.9.5,8.8,4.9,8.8,4.9Z"></path><path class="cls-11" d="M630.9,198.1s2.9,9.7-7.5,11.5"></path><g class="cls-1"><path class="cls-19" d="M605.5,229.7l5,10.3c14.9-11.8,26-30,33.8-48.2-10.8,14.5-24,27.1-38.7,37.9Z"></path></g><path class="cls-20" d="M655.5,87.4c.2,2.4,0,4.9-.6,7.2-.2.9-.7,1.9-1.5,2.2-.9.3-1.9-.3-2.5-1.1-1.2-1.4-1.8-3.1-1.9-4.9,0-1.8.1-3.6.6-5.3.3-1.3,1-2.9,2.3-3.1,2.7-.4,3.6,3.7,3.7,5Z"></path><path class="cls-11" d="M655.5,87.4c.2,2.4,0,4.9-.6,7.2-.2.9-.7,1.9-1.5,2.2-.9.3-1.9-.3-2.5-1.1-1.2-1.4-1.8-3.1-1.9-4.9,0-1.8.1-3.6.6-5.3.3-1.3,1-2.9,2.3-3.1,2.7-.4,3.6,3.7,3.7,5Z"></path><path class="cls-20" d="M649.6,85.9c.1,3.2-.5,6.3-1.7,9.2-.3.9-.9,1.8-1.5,2.5-.3.3-.7.6-1.1.8-.4.2-.9.2-1.4.2-1-.2-1.8-1-2.3-2.1-.4-1.1-.6-2.2-.6-3.3-.1-3.3.4-6.6,1.6-9.7.3-.9.8-1.8,1.4-2.6.3-.4.6-.7,1.1-.9.4-.2.9-.3,1.3-.3,1.1.1,2,1.1,2.4,2.3.4,1.2.7,2.5.8,3.8Z"></path><path class="cls-11" d="M649.6,85.9c.1,3.2-.5,6.3-1.7,9.2-.3.9-.9,1.8-1.5,2.5-.3.3-.7.6-1.1.8-.4.2-.9.2-1.4.2-1-.2-1.8-1-2.3-2.1-.4-1.1-.6-2.2-.6-3.3-.1-3.3.4-6.6,1.6-9.7.3-.9.8-1.8,1.4-2.6.3-.4.6-.7,1.1-.9.4-.2.9-.3,1.3-.3,1.1.1,2,1.1,2.4,2.3.4,1.2.7,2.5.8,3.8Z"></path><path class="cls-20" d="M642.4,86.2c-.3,3.4-1.1,6.8-2.5,9.9-.6,1.2-1.3,2.6-2.6,2.9-1.2.3-2.5-.3-3.2-1.3-.7-1-1.1-2.2-1.3-3.4-.7-4.1,0-8.3,1.7-12,.8-1.6,2-3.3,3.7-3.4,1.5,0,2.9,1.2,3.4,2.6.6,1.5.8,3.1.7,4.6Z"></path><path class="cls-11" d="M642.4,86.2c-.3,3.4-1.1,6.8-2.5,9.9-.6,1.2-1.3,2.6-2.6,2.9-1.2.3-2.5-.3-3.2-1.3-.7-1-1.1-2.2-1.3-3.4-.7-4.1,0-8.3,1.7-12,.8-1.6,2-3.3,3.7-3.4,1.5,0,2.9,1.2,3.4,2.6.6,1.5.8,3.1.7,4.6Z"></path><path class="cls-20" d="M634.3,85.8c-.2,3.4-1.1,6.7-2.7,9.8-.6,1.2-1.5,2.6-2.9,2.6-.5,0-1-.1-1.4-.4-.4-.2-.8-.6-1-1-.5-.8-.7-1.8-.8-2.7-.5-4.2.3-8.4,2.1-12.1.7-1.4,1.8-2.8,3.3-2.9,1.4,0,2.6,1.2,3,2.5.4,1.4.3,2.8.2,4.1Z"></path><path class="cls-11" d="M634.3,85.8c-.2,3.4-1.1,6.7-2.7,9.8-.6,1.2-1.5,2.6-2.9,2.6-.5,0-1-.1-1.4-.4-.4-.2-.8-.6-1-1-.5-.8-.7-1.8-.8-2.7-.5-4.2.3-8.4,2.1-12.1.7-1.4,1.8-2.8,3.3-2.9,1.4,0,2.6,1.2,3,2.5.4,1.4.3,2.8.2,4.1Z"></path><path class="cls-20" d="M623.6,113c-2-1.4-3.5-3.3-4.3-5.6-.8-2.3-1-4.7-.4-7.1.8-2.8,2.7-5.3,4.7-7.4,1.7-1.7,3.4-3.3,5.3-4.8,1-.8,2.4-1.5,3.3-.7.7.6.7,1.6.5,2.5-.6,3.2-2.1,6.2-5.5,9.7,3.6.5,7,2.2,9.5,4.9,2.5,2.7,4.1,6.1,4.4,9.8"></path><path class="cls-11" d="M623.6,113c-2-1.4-3.5-3.3-4.3-5.6-.8-2.3-1-4.7-.4-7.1.8-2.8,2.7-5.3,4.7-7.4,1.7-1.7,3.4-3.3,5.3-4.8,1-.8,2.4-1.5,3.3-.7.7.6.7,1.6.5,2.5-.6,3.2-2.1,6.2-5.5,9.7,3.6.5,7,2.2,9.5,4.9,2.5,2.7,4.1,6.1,4.4,9.8"></path><path class="cls-25" d="M539,288.5c28.4-3.2,55.8-12,80.8-25.9-3.8-24.6-14.6-47.7-30.5-66.6-14.8,11.3-33.3,17.1-51.8,20-5,.8-10,1.4-15,1.9l16.5,70.5Z"></path><path class="cls-25" d="M536.7,216.1c8.5,22.6,14.5,46.1,18,70,4.9-.9,9.8-2,14.7-3.3-1.1-24.2-7.1-47.9-17.6-69.7-4.7,1.2-9.5,2.2-14.3,2.9-.3,0-.6,0-.8.1Z"></path><path class="cls-25" d="M579.4,202.4c-4.5,2.5-9.2,4.7-14,6.5,9.7,22,16.8,45,21.1,68.7,5.6-2,11.1-4.2,16.5-6.6-2.9-24.3-11-47.6-23.6-68.6Z"></path><g class="cls-1"><path class="cls-19" d="M534.4,269l4.5,19.4c28.4-3.2,55.8-12,80.8-25.9-1.9-12.3-5.5-24.2-10.8-35.5-22.1,16.9-47.9,29.5-74.6,37.6v4.4Z"></path></g><path class="cls-3" d="M503.1,444.5c-4.8,4.4-10.8,7.6-18,9.7.1,7.6-.2,15.1-1.1,22.7"></path><path class="cls-3" d="M538.7,424.9c.1,4.7,1.2,9.2,3.1,13.5,1.9,4.2,4.7,8,8.1,11.2"></path><path class="cls-3" d="M441.8,435c-1.7,4.8-4.5,9.3-8.2,12.9-3.6,3.6-8,6.5-12.9,8.2"></path><path class="cls-25" d="M536.5,261.6l-14-43.6c-1.8.2-3.6.4-5.5.5-41,32.3-82.2,4.7-82.2,4.7-4.7,1.3-9.2,2.9-13.7,4.8l-9.7,51.7c-12.2,46.6-22.4,93.8-29.8,144,59.2,6.6,119.2,2.1,176.8-13.3-2-50.2-9.3-100.1-21.8-148.8Z"></path><path class="cls-25" d="M557.5,394.1c-.4-5.9-.8-11.7-1.3-17.6-55,13.3-112,15.4-167.8,6.2-1.3,7-2.5,14-3.7,21,57.5,11.7,117,8.4,172.8-9.6Z"></path><path class="cls-25" d="M545.8,302.6c-1.1-5.8-2.4-11.7-3.6-17.5-44.1,4.4-88.5,5.1-132.7,2-1.5,6-3.1,12-4.5,18.1"></path><path class="cls-25" d="M551,332.9c-.9-5.8-1.8-11.6-2.8-17.4-48.6,5.2-97.5,5.8-146.2,1.9-1.4,5.9-2.7,11.8-4.1,17.8,50.9,6.5,102.4,5.7,153.1-2.3Z"></path><path class="cls-25" d="M555.1,365.3c-.5-5.4-1.2-10.8-1.9-16.2-52.6,5-105.6,4.8-158.2-.5-1.4,6.6-2.7,13.2-4,19.9,54.5,7.6,109.9,6.5,164.1-3.1Z"></path><path class="cls-20" d="M479.5,249.5c17.1-1.8,32.4-14.8,37.5-31.1-13.2,1.1-26.4,1.7-39.5,3.2-14.3-3.2-28.9-2.3-42.7,1.5,6.9,16.7,26,28.3,44.7,26.4Z"></path><path class="cls-7" d="M558.3,410.3c-2-50.2-9.3-100.1-21.8-148.8"></path><path class="cls-7" d="M411.4,279.6c-12.2,46.6-22.4,93.8-29.8,144"></path><path class="cls-20" d="M458,269.7c-2.4,0-4.8,0-7.1.7-2.3.6-4.5,2-5.7,4-1.9,3.3-.9,7.7-2.8,11,0,0,9.6,3.5,14.7-2.5,5.1-6,.9-13.2.9-13.2Z"></path><path class="cls-20" d="M451.1,278.7c1-5.7,3-11.1,5.7-16.2.6-1,1.2-2,2.1-2.7.9-.7,2.3-.9,3.2-.2.9.7,1.2,2,2.2,2.7,2.3,1.7,5.9-1.8,8,0,1.5,1.4.5,4.3,2,5.7,1.5,1.4,4.3.2,5.5,1.7,1.3,1.5-.5,4.1.4,6,.5,1.1,1.7,1.6,2.5,2.5,1.6,1.7,1.2,4.5.4,6.7-2.1,6.1-6,11.5-12.1,16.8-10.2,20.2-24.8,37.9-42.8,51.6-8.3,6.3-17.6,11.8-28,13.1-9.5,1.2-19.4-1.6-27.1-7.4l12.1-29.8c22.7-9.1,42.5-24.3,57.2-43.9l8.7-6.7Z"></path><path class="cls-11" d="M451.1,278.7c1-5.7,3-11.1,5.7-16.2.6-1,1.2-2,2.1-2.7.9-.7,2.3-.9,3.2-.2.9.7,1.2,2,2.2,2.7,2.3,1.7,5.9-1.8,8,0,1.5,1.4.5,4.3,2,5.7,1.5,1.4,4.3.2,5.5,1.7,1.3,1.5-.5,4.1.4,6,.5,1.1,1.7,1.6,2.5,2.5,1.6,1.7,1.2,4.5.4,6.7-2.1,6.1-6,11.5-12.1,16.8-10.2,20.2-24.8,37.9-42.8,51.6-8.3,6.3-17.6,11.8-28,13.1-6.3.7-12.7-.2-18.6-2.6"></path><path class="cls-11" d="M381.3,356.6s4.6,6.1,11.4,1.8"></path><g class="cls-1"><path class="cls-19" d="M464.5,313.5c-14.8,10.6-30.3,20.3-47.2,26.8-12.6,4.8-26.2,7.7-39.6,7.7l-4.6,11.2c7.7,5.7,17.6,8.6,27.1,7.4,10.4-1.3,19.7-6.8,28-13.1,14.5-11,26.8-24.5,36.3-40Z"></path></g><path class="cls-20" d="M467,201c-.7,12.3-1.4,24.6-2.1,36.9,0,0,25.5.4,26.9-.2-.3-13.3-1.3-26.5-3-39.7l-21.9,2.9Z"></path><g class="cls-1"><path class="cls-19" d="M490.5,214.3c-.4-5.4-1-10.8-1.6-16.2l-21.9,2.9c-.2,4.4-.5,8.7-.7,13.1,8,1.5,16.2,1.6,24.2.3Z"></path></g><path class="cls-20" d="M521.4,153.1c5.8-1.5,10.9-5.5,13.3-11,2.4-5.4,1.8-12.2-2-16.8-3.8-4.6-10.8-6.4-16.6-4.1.7,11.2,2.5,22.3,5.2,31.9Z"></path><path class="cls-22" d="M516.7,115.3c3.3,13.3,6.7,26.8,6.7,40.6,0,13.8-3.5,28-12.5,38.4-8.3,9.6-20.9,15.1-33.5,15.4-12.7.3-25.3-4.6-34.8-13-9.5-8.3-16-20-18.6-32.4,0,0-3.2-23.1-4.3-25.4-4.6-.5-8.6-4.1-10.1-8.6-1.5-4.4-.6-9.4,1.7-13.4,2.3-4,6-7.1,9.7-9.4-8.1-5.7-11.5-17.2-7.8-26.4,3.7-9.2,14.2-15,24.6-12.7-.5-1.4-.8-2.8-.7-4.3,0-1.5.4-2.9,1-4.2.5-1.1,1.6-2.2,2.7-1.8.7.3,1,1,1.2,1.7.7,2.1.7,4.3,0,6.4,8.4-8,19-13.7,30.4-15.6,11.4-1.9,23.5,0,33.4,6,9.9,6,17.3,16.1,19.5,27.5,2.1,11.4-1.3,23.8-8.7,31.2Z"></path><path class="cls-9" d="M457.2,168.5c12.2.5,24.4-5.3,31.8-14.7,3.3,3.2,7.3,5.5,11.7,6.7,4.4,1.2,9.1,1.1,13.5,0"></path><path class="cls-20" d="M512.2,112.8c2.9,12.2,2.8,24.9-.5,37-19.3-8.2-42.4-4.4-57.6,9-7.7-9.7-11.9-21.8-11.8-34.2,0-11.8,3.6-23.6,11.1-33.3,1.4,1.8,3.3,3.1,5.5,3.8,2.1.7,4.5.9,6.7.4,4.4-1.1,8-4.8,9.6-9.3,9.8,11.6,23,20.4,37,26.6Z"></path><path class="cls-16" d="M501.8,146.8c3.4.7,6.7,1.7,9.9,3.1,1.1-4.1,1.8-8.3,2.2-12.6-2.7.2-5.3,1.2-7.5,2.9s-3.8,4-4.7,6.6Z"></path><path class="cls-16" d="M446,144.6c2,5.1,4.7,10,8.1,14.3,4.8-4.3,10.4-7.6,16.5-9.8-.7-2.5-2.1-4.7-4.1-6.5-1.9-1.7-4.3-2.9-6.9-3.4-2.6-.5-5.2-.2-7.6.7-2.4.9-4.5,2.5-6.1,4.6Z"></path><path class="cls-11" d="M489.1,125.1c4.3,5,6.6,11.5,6.4,18.1"></path><path class="cls-9" d="M454.8,131.2c2-2.4,5.4-3.3,8.5-2.9,3.1.4,5.9,1.9,8.6,3.6"></path><path class="cls-9" d="M500,129.3c1.4-2.1,3.6-3.5,6-4.1,2.4-.6,5-.2,7.2,1.1"></path><path class="cls-22" d="M464.7,113.1c-3.7,3.4-7.8,7-12.8,7.5-1.9.2-4.2-.3-4.9-2.1-.5-1.3,0-2.7.8-3.9,2.8-4.8,7.3-8.4,12.7-9.9,1.2-.4,2.5-.5,3.7-.3.6,0,1.2.3,1.7.7.5.3,1,.8,1.3,1.3,1,2-.2,4.6-2.5,6.7Z"></path><path class="cls-22" d="M500.1,112.7c4.3,2.6,9,5.3,14.1,4.7,1.9-.2,4-1.2,4.3-3.1.2-1.4-.6-2.7-1.6-3.7-3.7-4.2-8.9-6.7-14.4-7-1.2-.1-2.5,0-3.7.4-.6.2-1.1.6-1.6,1-.4.4-.8,1-1,1.6-.6,2.2,1.1,4.4,3.8,6.1Z"></path><path class="cls-20" d="M431.3,155.4c-.1,2.2-1,4.2-2.4,5.8-1.4,1.6-3.4,2.7-5.5,3.1-2.7.5-5.5.7-8.3.7-5.3-.2-10.7-1.9-14.4-5.6-4.3-4.4-5.7-11.2-4-17.1,1.7-5.9,6.4-10.7,12-13.2,5.6-2.5,12.1-2.7,20.3,0,2.3,8.5,2.8,17.4,2.3,26.4Z"></path><path class="cls-11" d="M407.3,146.4c1.8-2.3,4.3-4.2,7-5.3,2.8-1.1,5.8-1.5,8.7-1.1"></path><path class="cls-11" d="M417.7,152.7c-2.6-3.3-3.9-7.3-4-11.5"></path><path class="cls-7" d="M482.4,494.3l.4,24.9"></path></g></g></svg> 