<?xml version="1.0" encoding="UTF-8"?> <svg xmlns="http://www.w3.org/2000/svg" width="79" height="81" fill="none"><g clip-path="url(#_Слой_1__a)"><path d="M18.665 15.371c.085.113.182.22.253.341.43.735.853 1.474 1.3 2.249l2.605-1.504 6.03 10.446 5.233-3.02 1.513 2.619 7.85-4.533 1.51 2.615 5.233-3.02 1.512 2.619 2.64-1.524 1.511 2.62 2.603-1.503 10.571 18.31-2.598 1.5 4.527 7.842-2.626 1.515.214.37c1.373 2.379 2.742 4.76 4.125 7.133.149.254.146.375-.13.534-8.53 4.914-17.054 9.837-25.58 14.759-.085.05-.174.091-.302.157l-4.518-7.826-1.242.717c-.365.21-.738.41-1.092.637-.222.141-.33.105-.46-.124-.866-1.52-1.746-3.033-2.62-4.548l-.22-.38-2.605 1.504-3.027-5.245-2.63 1.519-3.013-5.218-2.607 1.505-1.528-2.647-2.642 1.525-4.52-7.827 7.89-4.555 1.495 2.59 2.6-1.502L12.345 22.51l2.61-1.507c-.337-.582-.656-1.125-.965-1.674-.179-.316-.34-.642-.51-.963l5.185-2.994Zm47.721 28.233L55.826 25.31l-2.6 1.502-1.49-2.58-2.6 1.5.226.394c1.357 2.35 2.709 4.702 4.076 7.046.16.274.18.416-.14.582-.667.35-1.319.732-1.96 1.13-.272.17-.381.098-.527-.155-1.863-3.246-3.738-6.487-5.61-9.728l-.213-.371-5.222 3.014.187.325 1.313 2.273c.947 1.64 1.889 3.283 2.846 4.917.139.237.114.352-.13.484-.603.327-1.193.682-1.788 1.026l-.544.314-6.025-10.435-5.226 3.017L36.424 40l-.338.195-1.872 1.08c-.28.163-.5.106-.659-.169-4.37-7.567-8.738-15.134-13.107-22.702l-.225-.39-5.232 3.021L33.08 52.367l-2.629 1.518-.203-.352c-.88-1.525-1.765-3.048-2.636-4.578-.13-.23-.239-.262-.46-.122-.393.249-.804.47-1.207.703l-1.123.649-1.5-2.596-5.192 2.998 3.002 5.199 2.593-1.497 1.515 2.626 2.623-1.514 3.005 5.205 2.612-1.508 3.027 5.244 2.639-1.524 3.018 5.228 2.601-1.503 3.005 5.204 20.936-12.088-.207-.358c-.88-1.525-1.757-3.053-2.645-4.573-.123-.211-.108-.317.113-.439.68-.375 1.347-.77 2.019-1.16.101-.058.196-.128.323-.21L63.795 45.1l2.591-1.496Z" fill="#000"></path><path d="M66.386 43.604 63.795 45.1l4.514 7.819c-.127.082-.222.152-.323.21-.672.39-1.34.785-2.019 1.16-.221.122-.237.228-.113.439.888 1.52 1.764 3.048 2.645 4.573l.207.358L47.77 71.747l-3.004-5.202-2.601 1.502-3.018-5.227-2.639 1.523-3.027-5.243-2.612 1.508-3.005-5.206-2.623 1.514-1.515-2.625-2.593 1.497-3.002-5.2 5.193-2.998 1.499 2.596c.4-.23.76-.44 1.123-.648.403-.233.814-.455 1.207-.703.221-.14.33-.11.46.121.87 1.53 1.756 3.054 2.636 4.578l.203.352 2.629-1.517-18.089-31.331 5.232-3.02.225.389 13.107 22.702c.159.275.378.331.659.17l1.872-1.081.338-.195L30.4 29.567l5.226-3.017 6.025 10.436c.202-.118.373-.216.543-.314.596-.344 1.185-.699 1.79-1.026.243-.133.267-.246.128-.484-.956-1.635-1.899-3.277-2.846-4.917l-1.312-2.273-.187-.325 5.221-3.015.215.371c1.871 3.242 3.745 6.483 5.61 9.729.145.252.254.324.527.154.64-.397 1.292-.78 1.959-1.129.318-.166.299-.308.14-.583-1.367-2.343-2.72-4.696-4.076-7.046l-.227-.393 2.6-1.501 1.49 2.58 2.6-1.501 10.561 18.292v-.001Z" fill="#fff"></path></g><defs><clipPath id="_Слой_1__a"><path fill="#fff" transform="rotate(-120 40.881 32.053)" d="M0 0h66.436v51.414H0z"></path></clipPath></defs></svg> 