<?xml version="1.0" encoding="UTF-8"?> <svg xmlns="http://www.w3.org/2000/svg" id="_Слой_1" data-name="Слой 1" version="1.1" viewBox="0 0 300 300"><defs><style> .cls-1 { fill: #fe504f; stroke: #000; stroke-linecap: round; stroke-linejoin: round; stroke-width: 8px; } .cls-2 { fill: #fed405; } .cls-2, .cls-3 { stroke-width: 0px; } .cls-3 { fill: #1d1d1b; } </style></defs><rect class="cls-3" x=".07" y="-.22" width="300" height="300"></rect><rect class="cls-2" x="10.07" y="9.78" width="280" height="280"></rect><polygon class="cls-3" points="34.54 259.26 .07 299.24 .07 299.26 300.07 299.26 300.07 259.26 34.54 259.26"></polygon><polygon class="cls-3" points="260.07 34.24 300.05 -.22 300.07 -.22 300.07 299.78 260.07 299.78 260.07 34.24"></polygon><g><polygon class="cls-1" points="190.53 205.17 169.5 205.17 169.5 231.17 213.47 231.17 213.47 183.17 190.53 183.17 190.53 205.17"></polygon><polygon class="cls-1" points="176.97 71.17 84.43 71.17 84.43 231.17 115.97 231.17 115.97 198.17 137.96 198.17 137.96 175.17 159.94 175.17 159.94 152.17 181.93 152.17 181.93 129.17 213.47 129.17 213.47 109.36 176.97 71.17"></polygon><polygon class="cls-1" points="196.13 91.17 213.34 109.17 178.93 109.17 178.93 73.17 196.13 91.17"></polygon></g></svg> 