<?xml version="1.0" encoding="UTF-8"?>
<svg id="_Слой_2" data-name="Слой 2" xmlns="http://www.w3.org/2000/svg" viewBox="0 0 32 32">
  <defs>
    <style>
      .cls-1 {
        fill: #f57c13;
      }

      .cls-1, .cls-2 {
        stroke-width: 0px;
      }

      .cls-2 {
        fill: #fff;
      }
    </style>
  </defs>
  <g id="_Слой_1-2" data-name="Слой 1">
    <g>
      <circle class="cls-1" cx="16" cy="16" r="16"/>
      <g>
        <path class="cls-2" d="M3.51,23.73c-.52-.18-1.12-.73-1.75-1.62-.64-.89-1.3-2.17-1.62-3.98.24-.17.37-.26.62-.45.14.99.38,1.76.63,2.34.25.57.52.99.78,1.27.26.27.5.44.72.49.33.08.54-.09.65-.52.1-.43.09-1.06,0-1.88-.11-.85-.25-1.47-.47-1.83-.22-.36-.51-.66-.86-.89-.16-.1-.24-.15-.4-.24-.3-.18-.58-.46-.82-.81-.24-.36-.41-.83-.49-1.41-.08-.58-.04-1.29.17-2.13.31-1.27.83-2.24,1.4-3.01.57-.77,1.09-1.26,1.55-1.45.46-.18.69.03.77.7.08.67,0,1.74-.13,3.25-.33.29-.49.44-.82.73.11-1.16.15-1.92.06-2.32-.1-.4-.28-.54-.58-.46-.3.08-.59.33-.87.73-.28.4-.53.95-.69,1.66-.16.7-.15,1.21-.03,1.53.13.32.33.56.61.72.15.08.22.12.38.2.32.18.61.44.88.79.26.35.48.87.66,1.56.18.69.31,1.59.42,2.66.18,1.65.26,2.83.14,3.57-.12.74-.41.98-.92.81Z"/>
        <path class="cls-2" d="M8.15,24.48c-.28-.05-.54-.35-.78-.9-.24-.55-.44-1.28-.56-2.23-.59-4.74-.53-7.6.21-12.22-.59.09-.89.14-1.46.25.18-.92.29-1.36.53-2.23.54-.15.82-.22,1.38-.34.51-2.28.85-3.35,1.63-5.26.24-.11.36-.17.61-.27-.71,1.95-1.01,3.04-1.48,5.37.62-.13.94-.18,1.58-.29-.14.95-.21,1.44-.32,2.44-.68.07-1.01.12-1.67.21-.65,4.53-.71,7.31-.24,11.99.07.73.22,1.09.42,1.12.46.05.69.08,1.16.12.1,1,.16,1.49.29,2.44-.53-.08-.79-.12-1.31-.21Z"/>
        <path class="cls-2" d="M12.65,25.54c-.36-.03-.71-.27-1.04-.74-.34-.46-.63-1.12-.87-1.97-.24-.86-.41-1.91-.46-3.17-.06-1.29.02-2.39.2-3.26.18-.87.44-1.53.77-1.98.33-.45.7-.67,1.1-.68.77-.01,1.16-.02,1.94-.02,0-.59,0-.88.01-1.45.02-1.39-.08-2.45-.29-3.21-.21-.76-.53-1.12-.97-1.09-.43.02-.79.4-1.08,1.13-.29.73-.51,1.71-.65,2.97-.32-.36-.48-.54-.79-.89.15-1.05.36-1.99.61-2.83.26-.84.56-1.51.91-2.03.35-.52.73-.79,1.15-.83.66-.05,1.14.5,1.49,1.69.35,1.19.54,2.93.53,5.29-.02,3.55-.02,5.51.01,8.98,0,.79.12,1.17.33,1.17.21,0,.31,0,.52,0,0,1.04,0,1.55,0,2.54-.31,0-.46,0-.77,0-.24,0-.44-.23-.6-.7-.16-.47-.25-1.09-.27-1.89,0-.08,0-.12,0-.19-.06,0-.08,0-.14,0-.07.49-.17.99-.29,1.5-.12.51-.29.92-.51,1.24-.22.32-.5.46-.86.43ZM12.59,23.03c.52.03.92-.48,1.23-1.55.31-1.07.46-2.62.46-4.68,0-.18,0-.27,0-.45-.78,0-1.16,0-1.92,0-.37,0-.67.28-.9.83-.23.55-.33,1.37-.3,2.44.04,1.07.2,1.89.47,2.49.27.6.58.9.96.92Z"/>
        <path class="cls-2" d="M17.29,25.14c.18-7.24.18-12.13-.03-19.23.33.01.5.02.83.03.04.88.06,1.34.09,2.26.06,0,.09,0,.16,0,.08-.65.22-1.23.42-1.75.2-.52.49-.75.89-.72.39.04.74.37,1.05.99.31.62.57,1.38.76,2.28.06,0,.09,0,.15.01.04-.88.14-1.59.3-2.14.16-.55.43-.78.84-.71.32.06.64.34.97.84.33.5.64,1.18.92,2.07.28.89.5,1.95.6,3.22.4,4.83.23,7.61-.64,12.06-.31.06-.47.09-.78.15.77-4.43.93-7.18.6-12-.08-1.22-.29-2.16-.57-2.86-.28-.71-.6-1.08-.96-1.12-.38-.05-.63.33-.81,1.18-.17.84-.21,2.11-.16,3.84.14,4.62.03,7.12-.45,11.32-.33.04-.5.06-.83.09.45-4.68.54-7.55.35-12.62-.05-1.28-.22-2.26-.47-2.99-.26-.73-.57-1.1-.94-1.13-.4-.02-.7.39-.93,1.28-.23.89-.33,2.2-.31,3.98.05,4.75.01,7.33-.18,11.67-.34.02-.52.02-.87.03Z"/>
        <path class="cls-2" d="M24.01,29.85c3.66-7.17,4.32-14.02,1.93-22.69.28.08.42.12.7.2.3.99.44,1.51.65,2.57.05.01.08.02.13.03-.05-.78-.04-1.42.03-1.93.07-.51.3-.66.72-.5.35.14.79.55,1.32,1.21.52.67,1.08,1.54,1.57,2.64.49,1.11.86,2.42.92,4.02,0,.16,0,.24,0,.4.02,1.59-.29,2.93-.73,4.07-.44,1.14-.98,2.02-1.48,2.68-.51.66-.95,1.06-1.32,1.19-.29.1-.5.05-.63-.16-.13-.21-.2-.52-.23-.93-.03-.41-.04-.86-.03-1.33-.05,0-.08.01-.14.02-.66,3.67-1.28,5.38-2.88,8.17-.22.14-.34.21-.56.34ZM28.93,21.7c.47-.1.98-.68,1.48-1.71.49-1.03.88-2.42.85-4.26,0-.11,0-.17,0-.28-.05-1.83-.5-3.19-1.03-4.22-.53-1.02-1.05-1.6-1.51-1.72-.45-.12-.68.27-.79,1.28-.11,1-.06,2.53-.02,4.59,0,.13,0,.19,0,.32.02,2.07.01,3.63.16,4.66.15,1.03.4,1.44.86,1.34Z"/>
      </g>
    </g>
  </g>
</svg>