<?xml version="1.0" encoding="UTF-8"?> <svg xmlns="http://www.w3.org/2000/svg" id="_Слой_1" data-name="Слой 1" version="1.1" viewBox="0 0 650 500"><defs><style> .cls-1 { fill: #d4cacc; } .cls-1, .cls-2, .cls-3, .cls-4, .cls-5, .cls-6, .cls-7, .cls-8, .cls-9, .cls-10, .cls-11, .cls-12, .cls-13, .cls-14, .cls-15, .cls-16, .cls-17, .cls-18, .cls-19, .cls-20, .cls-21, .cls-22, .cls-23, .cls-24, .cls-25 { stroke-width: 0px; } .cls-2 { fill: #d3cdbb; } .cls-3 { fill: #cac9c6; } .cls-4 { fill: #c82127; } .cls-5 { fill: #cacac9; } .cls-6 { fill: #d2cec4; } .cls-7 { fill: #cdc7c9; } .cls-8 { fill: #fdc310; } .cls-9 { fill: #cac8ca; } .cls-10 { fill: #fec414; } .cls-11 { fill: #a42127; } .cls-12 { fill: #d8a9ac; } .cls-13 { fill: #c8b8bb; } .cls-14 { fill: #cfbabc; } .cls-15 { fill: #cccbc5; } .cls-16 { fill: #ccc1c3; } .cls-17 { fill: #cbc5c8; } .cls-18 { fill: #cecacc; } .cls-19 { fill: #d0c3c5; } .cls-20 { fill: #fec30e; } .cls-21 { fill: #cacac8; } .cls-22 { fill: #c82027; } .cls-23 { fill: #cbccce; } .cls-24 { fill: #fec412; } .cls-25 { fill: #cccbc6; } </style></defs><path class="cls-4" d="M205.13,39.75h150.47c.18,1.46.35,2.83.51,4.21v8.76h33.03c0,4.02,0,7.61,0,11.2,0,2.67,0,5.34,0,8.07h44.76v-18.93h33.07c0,3.71,0,7.3,0,10.9-.2,2.63-.39,5.25-.6,7.98h8.67c2.74.12,5.47.25,8.69.4.12,2.22.23,4.41.35,6.6v7.86c3.18-.16,6.04-.3,8.9-.45h68.62c.17,3.36.3,6,.44,8.63l-.76,25.98c-.83-.02-1.67-.07-2.5-.07-140.98,0-281.96,0-422.95,0-1.33,0-2.66.11-3.99.18-22.95-.01-45.9-.02-68.86-.04-2.58-.13-5.16-.26-7.88-.4-.17-1.65-.33-3.09-.48-4.53v-8.27h-15.94v11.89c-3.22.2-6,.37-8.78.55-2.26-.11-4.52-.22-6.75-.33v-33.58h14.82v-14.4c-3.14.25-5.67.45-8.2.66-2.21-.13-4.42-.27-7.07-.43v-17.08h-8.75c-2.32-.04-4.65-.08-6.97-.11v-15h48V6h47c-.02,2-.04,3.99-.06,5.99-.25,2.69-.49,5.39-.82,8.91,3.52-.33,6.22-.59,8.91-.85h86.9c0,4.07,0,7.51,0,10.96-.25,2.84-.49,5.68-.76,8.75h8.96Z"></path><path class="cls-9" d="M152,494c-.03-2.91-.07-5.81-.1-8.72,3.93-.17,7.85-.35,12.27-.55v-16.12h16.77v-15.83h31.74v-14.85h127.3v-35.21h15.82v-14.46h33.03v-29.11h14.39v-16.39h15.95v-19.97h14.55c.2-2.85.38-5.31.55-7.76,2.61.13,5.22.25,8.23.4v16.34h-14.52v19.81h-15.99v15.96c-4.97.22-9.19.41-14.01.62v28.72h-33.91v14.94h-15.01v34.95h-127.84v14.93h-31.16v15.3h-17.07v16.98h-21Z"></path><path class="cls-5" d="M635.67,232.01c2.78,0,5.55,0,8.33,0v17h-33.99c0-3.01,0-5.45,0-7.88,8.22,0,16.44,0,24.65,0,.4-3.61.7-6.36,1.01-9.11Z"></path><path class="cls-20" d="M434.28,315.04c-.17,2.45-.35,4.91-.55,7.76h-14.55v19.97h-15.95v16.39c-5.2,0-9.79,0-14.39,0-17-.05-33.99-.14-50.99-.15-78.83-.06-157.65-.09-236.48-.14,0-2.3,0-4.61-.01-6.91.2-2.86.4-5.72.62-8.85h-16.23v-31.91h15.61c0-3.06,0-5.65,0-8.23.19-2.84.39-5.69.59-8.69h-16.23v-31.21h15.7v-47.01h14.01v-48.77h15.91c0-13.11,0-25.68,0-38.26.17-2.65.35-5.31.52-7.96,1.33-.06,2.66-.18,3.99-.18,140.98,0,281.96,0,422.95,0,.83,0,1.67.05,2.5.07,0,4.93,0,9.86,0,15.41h-22.45v15.81h-25.91v15.1h-46.65v17.32h-16.31v31.65h-16.1v15.04h-14.55v75.44h8.71c1.78.09,3.55.17,5.85.29.13,2.68.26,5.36.4,8.03ZM211.71,294.94v-49.07h-14.91v-14.39h-16.03v14.65h-15.21v48.81h46.15Z"></path><path class="cls-21" d="M428.04,306.72h-8.71v-75.44h14.55v-15.04h16.1v-31.65h16.31v-17.32h46.65v-15.1h25.91v-15.81h22.45c0-5.55,0-10.48,0-15.41.25-8.66.51-17.32.76-25.98,2.45,0,4.9,0,7.67,0v49.91h-21.79v15.79h-25.66v14.98h-46.93v17.16h-16.3v32.08h-15.95v14.94h-15.04v66.89Z"></path><path class="cls-10" d="M536.83,264.63c-1.81-.14-3.63-.29-5.85-.46v-17.44h14.16v-13.87h17.79c.12,1.76.23,3.4.34,5.03,0,2.88,0,5.77,0,9.18,3.23-.27,5.96-.51,8.69-.74h6.17v31.58c-8.77.39-16.46.73-24.15,1.07-2.58,0-5.17,0-8.34,0-.1-2.21-.19-4.08-.28-5.96.18-2.84.37-5.68.59-9.14-3.63.3-6.37.52-9.11.74Z"></path><path class="cls-8" d="M635.67,232.01c-.3,2.75-.61,5.5-1.01,9.11-8.21,0-16.43,0-24.65,0-2.48,0-4.95,0-7.8,0v-16.8h33.46v7.69Z"></path><path class="cls-24" d="M489.92,311.67h-8.36v-33.42h15.61c.16,2.64.31,5.11.46,7.58,0,8.24,0,16.48,0,24.72-3.24.46-5.48.79-7.72,1.11Z"></path><path class="cls-3" d="M553.98,278.98c7.69-.34,15.38-.68,24.15-1.07v-23.02c2.43,0,4.87,0,7.6,0v31.72h-31.41c-.11-2.49-.23-5.06-.35-7.63Z"></path><path class="cls-15" d="M489.92,311.67c2.24-.32,4.48-.64,7.72-1.11,0-8.24,0-16.48,0-24.72,2.6.14,5.21.28,8.05.43v33.34h-15.77v-7.93Z"></path><path class="cls-13" d="M110.03,20.05c-2.69.26-5.39.51-8.91.85.32-3.52.57-6.21.82-8.91,2.42,0,4.84,0,8.1,0v8.06Z"></path><path class="cls-13" d="M205.13,39.75h-8.96c.27-3.07.51-5.91.76-8.75,2.43,0,4.87,0,7.78,0,.16,3.29.29,6.02.42,8.75Z"></path><path class="cls-6" d="M571.96,246.33c-2.73.23-5.46.46-8.69.74,0-3.42,0-6.3,0-9.18,2.57,0,5.14,0,8.3,0,.14,3.11.27,5.78.39,8.45Z"></path><path class="cls-2" d="M536.83,264.63c2.74-.22,5.49-.45,9.11-.74-.22,3.46-.41,6.3-.59,9.14-2.45,0-4.89,0-7.88,0-.23-3-.43-5.7-.64-8.4Z"></path><path class="cls-1" d="M364.12,52.72h-8.01v-8.76c2.41,0,4.82,0,8.01,0v8.76Z"></path><path class="cls-23" d="M397.96,71.99h-8.81c0-2.73,0-5.4,0-8.07,2.62,0,5.25,0,8.43,0,.14,2.94.26,5.51.39,8.07Z"></path><path class="cls-16" d="M475.05,71.94h-8.67c.2-2.73.4-5.35.6-7.98,2.41,0,4.82,0,8.08,0v7.98Z"></path><path class="cls-12" d="M492.99,86.35c-2.86.14-5.72.29-8.9.45v-7.86c2.58.17,5.15.35,8.16.55.26,2.43.5,4.65.74,6.86Z"></path><path class="cls-25" d="M131.86,121.06c-.17,2.65-.35,5.31-.52,7.96-22.43,0-44.87,0-67.91,0-.15-2.87-.29-5.43-.42-8,22.95.01,45.9.02,68.86.04Z"></path><path class="cls-17" d="M54.64,116.1h-7.49v12.44h-16.79c-.15-2.78-.3-5.53-.45-8.27,2.78-.17,5.57-.35,8.78-.55v-11.89h15.94v8.27Z"></path><path class="cls-18" d="M22.72,63.12h-8.34c-.15-2.93-.28-5.47-.4-8,2.76,0,5.51,0,8.75,0v8Z"></path><path class="cls-16" d="M37.99,80.99h-7.71c-.18-3.19-.33-5.78-.48-8.37,2.53-.2,5.06-.41,8.2-.66v9.03Z"></path><path class="cls-22" d="M101.36,358.87c78.83.04,157.65.08,236.48.14,17,.01,33.99.1,50.99.15,0,9.47,0,18.93,0,29.11h-33.03v14.46h-15.82v35.21h-127.3v14.85h-31.74v15.83h-16.77v16.12c-4.42.2-8.35.37-12.27.55-1.22-.12-2.43-.24-4.01-.4,0-2.45,0-4.67,0-6.88,0-2.88,0-5.76,0-8.85h-16.16c-.14-2.63-.25-4.88-.37-7.14.19-2.87.37-5.73.57-8.74h-16.52c0-7.42,0-14.34,0-21.26.18-2.56.37-5.11.57-7.92h-16.62c0-4.28,0-8.19,0-12.1.19-2.88.38-5.76.58-8.87h-30.19v-30.17h15.57v-14.08h16.06Z"></path><path class="cls-7" d="M77.95,403.12h21.98c-.2,3.11-.39,5.99-.58,8.87-6.88,0-13.76,0-21.4,0v-8.87Z"></path><path class="cls-19" d="M122.91,453.27h9.02c-.19,3-.38,5.87-.57,8.74-2.55,0-5.09,0-8,0-.17-3.34-.31-6.04-.45-8.74Z"></path><path class="cls-6" d="M92.93,294.27h9.01c-.2,3-.4,5.84-.59,8.69-2.41,0-4.83,0-7.91,0-.19-3.31-.35-6-.5-8.69Z"></path><path class="cls-6" d="M92.98,343.1h8.99c-.22,3.14-.42,6-.62,8.85-2.43,0-4.86,0-7.96,0-.16-3.41-.28-6.13-.41-8.85Z"></path><path class="cls-14" d="M106.96,424.08h9.01c-.2,2.81-.38,5.36-.57,7.92-2.46,0-4.91,0-7.94,0-.18-2.82-.34-5.37-.51-7.92Z"></path><path class="cls-23" d="M139.92,469.14h7.97c0,3.09,0,5.97,0,8.85-2.42,0-4.84,0-7.97,0v-8.85Z"></path><path class="cls-11" d="M211.71,294.94h-46.15v-48.81h15.21v-14.65h16.03v14.39h14.91v49.07Z"></path></svg> 