<?xml version="1.0" encoding="UTF-8"?> <svg xmlns="http://www.w3.org/2000/svg" id="_Слой_2" data-name="Слой 2" viewBox="0 0 1002.64 534.87"><defs><style> .cls-1, .cls-2, .cls-3 { stroke-width: 0px; } .cls-1, .cls-4 { fill: #000; } .cls-2 { fill: #fd5050; } .cls-5 { fill: #feb3b3; } .cls-5, .cls-6, .cls-7, .cls-4, .cls-8 { stroke: #000; stroke-miterlimit: 10; stroke-width: 2px; } .cls-6 { fill: #2aaf5a; } .cls-7 { fill: #ffd401; } .cls-8, .cls-3 { fill: #3091f5; } </style></defs><g id="_Слой_1-2" data-name="Слой 1"><g><polygon class="cls-3" points="914.19 367.59 1001.86 423.61 914.19 479.64 826.53 423.61 914.19 367.59"></polygon><path class="cls-2" d="M1001.94,423.84v95.97c0,7.93-6.43,14.35-14.36,14.35h-143.58c-9.69,0-17.55-7.85-17.55-17.54v-92.79s87.74,56.13,87.74,56.13l87.74-56.13Z"></path><path class="cls-1" d="M825.75,423.27v.67s88.45,56.52,88.45,56.52l88.45-56.52v-.67s-88.45-56.52-88.45-56.52l-88.45,56.52ZM827.83,423.61l86.37-55.19,86.37,55.19-86.37,55.19-86.37-55.19Z"></path><path class="cls-1" d="M825.75,423.46v93.16c0,10.06,8.19,18.24,18.25,18.24h143.58c8.31,0,15.06-6.75,15.06-15.06v-96.53s-.56-.36-.56-.36l-87.88,56.22-87.74-56.12-.71.45ZM827.15,425.12l87.04,55.68,87.04-55.68v94.69c0,7.53-6.13,13.65-13.66,13.65h-143.58c-9.29,0-16.85-7.55-16.85-16.84v-91.5Z"></path><polygon class="cls-3" points="896.65 349.69 984.32 405.71 896.65 461.74 808.98 405.71 896.65 349.69"></polygon><path class="cls-2" d="M984.39,405.94v95.97c0,7.93-6.43,14.35-14.36,14.35h-143.58c-9.69,0-17.55-7.85-17.55-17.54v-92.79s87.74,56.13,87.74,56.13l87.74-56.13Z"></path><path class="cls-1" d="M808.2,405.38v.67s88.45,56.52,88.45,56.52l88.45-56.52v-.67s-88.45-56.52-88.45-56.52l-88.45,56.52ZM810.28,405.71l86.37-55.19,86.37,55.19-86.37,55.19-86.37-55.19Z"></path><path class="cls-1" d="M808.2,405.56v93.16c0,10.06,8.19,18.24,18.25,18.24h143.58c8.31,0,15.06-6.75,15.06-15.06v-96.53s-.56-.36-.56-.36l-87.88,56.22-87.74-56.12-.71.45ZM809.61,407.22l87.04,55.68,87.04-55.68v94.69c0,7.53-6.13,13.65-13.66,13.65h-143.58c-9.29,0-16.85-7.55-16.85-16.84v-91.5Z"></path><polygon class="cls-3" points="879.1 331.79 966.77 387.81 879.1 443.84 791.43 387.81 879.1 331.79"></polygon></g><g><path class="cls-7" d="M944.48,401.95c0,27.61-22.39,50-50,50-27.61,0-50-22.39-50-50s22.39-50,50-50c27.61,0,50,22.39,50,50Z"></path><path class="cls-1" d="M889.98,386.95c0,11.05-2.24,20-5,20s-5-8.95-5-20c0-11.05,2.24-20,5-20s5,8.95,5,20Z"></path><ellipse class="cls-1" cx="904.48" cy="386.95" rx="5" ry="20"></ellipse><path class="cls-1" d="M928.23,403.7c-.66,0-1.21.52-1.25,1.18-.87,17.42-15.08,31.28-32.5,31.28-17.42,0-31.63-13.86-32.5-31.28-.03-.67-.59-1.18-1.25-1.18h0c-.72,0-1.29.61-1.25,1.34.95,18.75,16.25,33.66,35,33.66,18.75,0,34.05-14.91,35-33.66.04-.73-.53-1.34-1.25-1.34h0Z"></path></g><g><path class="cls-1" d="M790.65,387.48v.67s88.45,56.52,88.45,56.52l88.45-56.52v-.67s-88.45-56.52-88.45-56.52l-88.45,56.52ZM792.73,387.81l86.37-55.19,86.37,55.19-86.37,55.19-86.37-55.19Z"></path><path class="cls-2" d="M966.84,388.04v95.97c0,7.93-6.43,14.35-14.36,14.35h-143.58c-9.69,0-17.55-7.85-17.55-17.54v-92.79s87.74,56.13,87.74,56.13l87.74-56.13Z"></path><path class="cls-1" d="M790.65,387.66v93.16c0,10.06,8.19,18.24,18.25,18.24h143.58c8.31,0,15.06-6.75,15.06-15.06v-96.53s-.56-.36-.56-.36l-87.88,56.22-87.74-56.12-.71.45ZM792.06,389.32l87.04,55.68,87.04-55.68v94.69c0,7.53-6.13,13.65-13.66,13.65h-143.58c-9.29,0-16.85-7.55-16.85-16.84v-91.5Z"></path><rect class="cls-1" x="895.59" y="463.27" width="69.84" height="1.4" rx=".7" ry=".7" transform="translate(1294.62 1437.91) rotate(-137)"></rect><rect class="cls-1" x="793.08" y="463.27" width="69.84" height="1.4" rx=".7" ry=".7" transform="translate(-93.99 689.34) rotate(-43)"></rect></g><g><circle class="cls-7" cx="849.87" cy="357.62" r="50"></circle><ellipse class="cls-1" cx="859.37" cy="342.62" rx="5" ry="20"></ellipse><ellipse class="cls-1" cx="839.87" cy="342.62" rx="5" ry="20"></ellipse><path class="cls-1" d="M816.12,359.37c.66,0,1.21.52,1.25,1.18.87,17.42,15.08,31.28,32.5,31.28,17.42,0,31.63-13.86,32.5-31.28.03-.67.59-1.18,1.25-1.18h0c.72,0,1.29.61,1.25,1.34-.95,18.75-16.25,33.66-35,33.66-18.75,0-34.05-14.91-35-33.66-.04-.73.53-1.34,1.25-1.34h0Z"></path></g><g><circle class="cls-7" cx="811.87" cy="300.62" r="50"></circle><ellipse class="cls-1" cx="821.37" cy="285.62" rx="5" ry="20"></ellipse><ellipse class="cls-1" cx="801.87" cy="285.62" rx="5" ry="20"></ellipse><path class="cls-1" d="M778.12,302.37c.66,0,1.21.52,1.25,1.18.87,17.42,15.08,31.28,32.5,31.28,17.42,0,31.63-13.86,32.5-31.28.03-.67.59-1.18,1.25-1.18h0c.72,0,1.29.61,1.25,1.34-.95,18.75-16.25,33.66-35,33.66-18.75,0-34.05-14.91-35-33.66-.04-.73.53-1.34,1.25-1.34h0Z"></path></g><g><circle class="cls-7" cx="864.03" cy="251.95" r="50"></circle><ellipse class="cls-1" cx="873.53" cy="236.95" rx="5" ry="20"></ellipse><ellipse class="cls-1" cx="854.03" cy="236.95" rx="5" ry="20"></ellipse><path class="cls-1" d="M830.28,253.7c.66,0,1.21.52,1.25,1.18.87,17.42,15.08,31.28,32.5,31.28,17.42,0,31.63-13.86,32.5-31.28.03-.67.59-1.18,1.25-1.18h0c.72,0,1.29.61,1.25,1.34-.95,18.75-16.25,33.66-35,33.66s-34.05-14.91-35-33.66c-.04-.73.53-1.34,1.25-1.34h0Z"></path></g><g><circle class="cls-7" cx="914.03" cy="214.95" r="50"></circle><path class="cls-1" d="M880.28,216.7c.66,0,1.21.52,1.25,1.18.87,17.42,15.08,31.28,32.5,31.28,17.42,0,31.63-13.86,32.5-31.28.03-.67.59-1.18,1.25-1.18h0c.72,0,1.29.61,1.25,1.34-.95,18.75-16.25,33.66-35,33.66-18.75,0-34.05-14.91-35-33.66-.04-.73.53-1.34,1.25-1.34h0Z"></path><ellipse class="cls-1" cx="923.53" cy="199.95" rx="5" ry="20"></ellipse><ellipse class="cls-1" cx="904.03" cy="199.95" rx="5" ry="20"></ellipse></g><g><circle class="cls-7" cx="951.03" cy="166.95" r="50"></circle><ellipse class="cls-1" cx="960.53" cy="151.95" rx="5" ry="20"></ellipse><ellipse class="cls-1" cx="941.03" cy="151.95" rx="5" ry="20"></ellipse><path class="cls-1" d="M917.28,168.7c.66,0,1.21.52,1.25,1.18.87,17.42,15.08,31.28,32.5,31.28,17.42,0,31.63-13.86,32.5-31.28.03-.67.59-1.18,1.25-1.18h0c.72,0,1.29.61,1.25,1.34-.95,18.75-16.25,33.66-35,33.66-18.75,0-34.05-14.91-35-33.66-.04-.73.53-1.34,1.25-1.34h0Z"></path></g><g><path class="cls-6" d="M891.71,1h57.35c14.06,0,25.57,11.51,25.57,25.57v1.85c0,10.5-6.42,19.57-15.52,23.5v20.95s-22.78-18.87-22.78-18.87h-44.63c-14.06,0-25.57-11.51-25.57-25.57v-1.85c0-14.06,11.51-25.57,25.57-25.57Z"></path><circle class="cls-4" cx="919.16" cy="27.87" r="6.25"></circle><circle class="cls-4" cx="943.66" cy="27.87" r="6.25"></circle><circle class="cls-4" cx="894.66" cy="27.87" r="6.25"></circle></g><g><path class="cls-5" d="M305.94,11.64h57.35c14.06,0,25.57,11.51,25.57,25.57v1.85c0,10.5-6.42,19.57-15.52,23.5v20.95s-22.78-18.87-22.78-18.87h-44.63c-14.06,0-25.57-11.51-25.57-25.57v-1.85c0-14.06,11.51-25.57,25.57-25.57Z"></path><circle class="cls-1" cx="334.85" cy="37.37" r="6.25"></circle><circle class="cls-1" cx="310.35" cy="37.37" r="6.25"></circle><circle class="cls-1" cx="359.35" cy="37.37" r="6.25"></circle></g><g><path class="cls-5" d="M972.8,269.12h-57.35c-14.06,0-25.57,11.51-25.57,25.57v1.85c0,10.5,6.42,19.57,15.52,23.5v20.95l22.78-18.87h44.63c14.06,0,25.57-11.51,25.57-25.57v-1.85c0-14.06-11.51-25.57-25.57-25.57Z"></path><circle class="cls-4" cx="944.62" cy="294.87" r="6.25"></circle><circle class="cls-4" cx="920.12" cy="294.87" r="6.25"></circle><path class="cls-4" d="M975.37,294.87c0,3.45-2.8,6.25-6.25,6.25s-6.25-2.8-6.25-6.25,2.8-6.25,6.25-6.25,6.25,2.8,6.25,6.25Z"></path></g><g><circle class="cls-7" cx="51" cy="57.39" r="50"></circle><ellipse class="cls-1" cx="60.5" cy="42.39" rx="5" ry="20"></ellipse><ellipse class="cls-1" cx="41" cy="42.39" rx="5" ry="20"></ellipse><path class="cls-1" d="M17.25,59.14c.66,0,1.21.52,1.25,1.18.87,17.42,15.08,31.28,32.5,31.28,17.42,0,31.63-13.86,32.5-31.28.03-.67.59-1.18,1.25-1.18h0c.72,0,1.29.61,1.25,1.34-.95,18.75-16.25,33.66-35,33.66s-34.05-14.91-35-33.66c-.04-.73.53-1.34,1.25-1.34h0Z"></path></g><g><circle class="cls-7" cx="131" cy="470.39" r="50"></circle><ellipse class="cls-1" cx="140.5" cy="455.39" rx="5" ry="20"></ellipse><ellipse class="cls-1" cx="121" cy="455.39" rx="5" ry="20"></ellipse><path class="cls-1" d="M97.25,472.14c.66,0,1.21.52,1.25,1.18.87,17.42,15.08,31.28,32.5,31.28,17.42,0,31.63-13.86,32.5-31.28.03-.67.59-1.18,1.25-1.18h0c.72,0,1.29.61,1.25,1.34-.95,18.75-16.25,33.66-35,33.66s-34.05-14.91-35-33.66c-.04-.73.53-1.34,1.25-1.34h0Z"></path></g><g><circle class="cls-7" cx="116" cy="210.39" r="50"></circle><ellipse class="cls-1" cx="125.5" cy="195.39" rx="5" ry="20"></ellipse><ellipse class="cls-1" cx="106" cy="195.39" rx="5" ry="20"></ellipse><path class="cls-1" d="M82.25,212.14c.66,0,1.21.52,1.25,1.18.87,17.42,15.08,31.28,32.5,31.28,17.42,0,31.63-13.86,32.5-31.28.03-.67.59-1.18,1.25-1.18h0c.72,0,1.29.61,1.25,1.34-.95,18.75-16.25,33.66-35,33.66s-34.05-14.91-35-33.66c-.04-.73.53-1.34,1.25-1.34h0Z"></path></g><g><path class="cls-8" d="M52.32,334.89h57.35c14.06,0,25.57,11.51,25.57,25.57v1.85c0,10.5-6.42,19.57-15.52,23.5v20.95s-22.78-18.87-22.78-18.87h-44.63c-14.06,0-25.57-11.51-25.57-25.57v-1.85c0-14.06,11.51-25.57,25.57-25.57Z"></path><circle class="cls-4" cx="80.5" cy="360.64" r="6.25"></circle><circle class="cls-4" cx="105" cy="360.64" r="6.25"></circle><circle class="cls-4" cx="56" cy="360.64" r="6.25"></circle></g><g><path class="cls-8" d="M605.68,236.89h-57.35c-14.06,0-25.57,11.51-25.57,25.57v1.85c0,10.5,6.42,19.57,15.52,23.5v20.95l22.78-18.87h44.63c14.06,0,25.57-11.51,25.57-25.57v-1.85c0-14.06-11.51-25.57-25.57-25.57Z"></path><path class="cls-1" d="M584.48,263.76c0,3.45-2.8,6.25-6.25,6.25-3.45,0-6.25-2.8-6.25-6.25s2.8-6.25,6.25-6.25,6.25,2.8,6.25,6.25Z"></path><path class="cls-1" d="M559.98,263.76c0,3.45-2.8,6.25-6.25,6.25-3.45,0-6.25-2.8-6.25-6.25s2.8-6.25,6.25-6.25,6.25,2.8,6.25,6.25Z"></path><circle class="cls-1" cx="602.73" cy="263.76" r="6.25"></circle></g><g><circle class="cls-7" cx="542" cy="481.39" r="50"></circle><ellipse class="cls-1" cx="551.5" cy="466.39" rx="5" ry="20"></ellipse><ellipse class="cls-1" cx="532" cy="466.39" rx="5" ry="20"></ellipse><path class="cls-1" d="M508.25,483.14c.66,0,1.21.52,1.25,1.18.87,17.42,15.08,31.28,32.5,31.28,17.42,0,31.63-13.86,32.5-31.28.03-.67.59-1.18,1.25-1.18h0c.72,0,1.29.61,1.25,1.34-.95,18.75-16.25,33.66-35,33.66s-34.05-14.91-35-33.66c-.04-.73.53-1.34,1.25-1.34h0Z"></path></g><g><circle class="cls-7" cx="66" cy="269.39" r="50"></circle><ellipse class="cls-1" cx="75.5" cy="254.39" rx="5" ry="20"></ellipse><ellipse class="cls-1" cx="56" cy="254.39" rx="5" ry="20"></ellipse><path class="cls-1" d="M32.25,271.14c.66,0,1.21.52,1.25,1.18.87,17.42,15.08,31.28,32.5,31.28,17.42,0,31.63-13.86,32.5-31.28.03-.67.59-1.18,1.25-1.18h0c.72,0,1.29.61,1.25,1.34-.95,18.75-16.25,33.66-35,33.66s-34.05-14.91-35-33.66c-.04-.73.53-1.34,1.25-1.34h0Z"></path></g><g><circle class="cls-7" cx="457" cy="62.39" r="50"></circle><ellipse class="cls-1" cx="466.5" cy="47.39" rx="5" ry="20"></ellipse><ellipse class="cls-1" cx="447" cy="47.39" rx="5" ry="20"></ellipse><path class="cls-1" d="M423.25,64.14c.66,0,1.21.52,1.25,1.18.87,17.42,15.08,31.28,32.5,31.28,17.42,0,31.63-13.86,32.5-31.28.03-.67.59-1.18,1.25-1.18h0c.72,0,1.29.61,1.25,1.34-.95,18.75-16.25,33.66-35,33.66s-34.05-14.91-35-33.66c-.04-.73.53-1.34,1.25-1.34h0Z"></path></g><g><circle class="cls-7" cx="903.51" cy="115.39" r="50"></circle><path class="cls-1" d="M899.01,100.39c0,11.05-2.24,20-5,20s-5-8.95-5-20c0-11.05,2.24-20,5-20s5,8.95,5,20Z"></path><ellipse class="cls-1" cx="913.51" cy="100.39" rx="5" ry="20"></ellipse><path class="cls-1" d="M937.26,117.14c-.66,0-1.21.52-1.25,1.18-.87,17.42-15.08,31.28-32.5,31.28-17.42,0-31.63-13.86-32.5-31.28-.03-.67-.59-1.18-1.25-1.18h0c-.72,0-1.29.61-1.25,1.34.95,18.75,16.25,33.66,35,33.66,18.75,0,34.05-14.91,35-33.66.04-.73-.53-1.34-1.25-1.34h0Z"></path></g><g><circle class="cls-7" cx="792.48" cy="56.95" r="50"></circle><path class="cls-1" d="M787.98,41.95c0,11.05-2.24,20-5,20s-5-8.95-5-20,2.24-20,5-20,5,8.95,5,20Z"></path><ellipse class="cls-1" cx="802.48" cy="41.95" rx="5" ry="20"></ellipse><path class="cls-1" d="M826.23,58.7c-.66,0-1.21.52-1.25,1.18-.87,17.42-15.08,31.28-32.5,31.28-17.42,0-31.63-13.86-32.5-31.28-.03-.67-.59-1.18-1.25-1.18h0c-.72,0-1.29.61-1.25,1.34.95,18.75,16.25,33.66,35,33.66,18.75,0,34.05-14.91,35-33.66.04-.73-.53-1.34-1.25-1.34h0Z"></path></g></g></svg> 